<svg width="539" height="90" viewBox="0 0 539 90" fill="none" xmlns="http://www.w3.org/2000/svg">
<g clip-path="url(#clip0_224_1061)">
<path d="M264.392 37.6395C263.916 37.8738 263.283 38.0886 262.491 38.2838C261.699 38.4791 260.847 38.6548 259.897 38.7719C258.966 38.9086 257.996 39.0258 256.986 39.1624C255.976 39.2796 254.966 39.3772 253.976 39.4553V41.271C256.907 41.232 259.679 41.1539 262.273 41.0367C264.867 40.9196 267.065 40.7634 268.847 40.5682C269.401 40.5291 269.995 40.5682 270.609 40.6267C271.223 40.7048 271.778 40.9001 272.312 41.1929C272.827 41.4858 273.263 41.8958 273.619 42.423C273.976 42.9501 274.174 43.6334 274.213 44.4535C274.253 45.1954 274.154 45.8592 273.916 46.4254C273.678 46.9916 273.342 47.4797 272.926 47.8702C272.51 48.2607 272.035 48.5731 271.52 48.8073C271.005 49.0416 270.49 49.1978 269.976 49.2759C268.788 49.4321 267.124 49.5493 264.986 49.6469C262.847 49.7445 260.451 49.8226 257.798 49.8812C255.144 49.9397 252.352 49.9788 249.422 49.9983C246.491 49.9983 243.66 49.9983 240.947 49.9593C238.234 49.9202 235.739 49.8421 233.462 49.725C231.185 49.6078 229.363 49.4516 228.017 49.2564C227.462 49.1783 226.927 49.0221 226.373 48.7878C225.838 48.5535 225.363 48.2411 224.947 47.8507C224.531 47.4602 224.215 46.9721 223.997 46.3864C223.779 45.8006 223.7 45.0978 223.779 44.2777C223.858 43.5749 224.076 42.9696 224.432 42.462C224.789 41.9544 225.244 41.5639 225.779 41.2515C226.314 40.9586 226.868 40.7634 227.482 40.6658C228.076 40.5682 228.63 40.5291 229.145 40.5877C230.967 40.7829 233.165 40.9196 235.739 41.0172C238.313 41.1148 241.066 41.2125 243.996 41.271V39.3967C243.006 39.3186 241.996 39.221 240.967 39.1038C239.937 38.9867 238.947 38.8696 238.016 38.7134C237.086 38.5767 236.274 38.4205 235.541 38.2448C234.828 38.0691 234.254 37.8738 233.818 37.6786C232.987 37.2881 232.096 36.7024 231.145 35.9409C230.195 35.1795 229.601 34.1642 229.363 32.9147C229.205 32.0947 229.106 31.2356 229.026 30.3375C228.967 29.4394 228.947 28.5413 228.947 27.6627C228.947 26.7841 228.987 25.925 229.026 25.105C229.086 24.285 229.185 23.5626 229.304 22.9379C229.422 22.3131 229.64 21.7274 229.977 21.1807C230.313 20.634 230.71 20.1654 231.165 19.7749C231.62 19.3845 232.096 19.0721 232.591 18.8768C233.086 18.6621 233.541 18.5449 233.937 18.5449H263.837C264.233 18.5449 264.689 18.6425 265.203 18.8768C265.718 19.0916 266.213 19.404 266.728 19.814C267.223 20.224 267.639 20.7121 268.015 21.2588C268.372 21.8055 268.609 22.4107 268.728 23.0745C268.926 24.5193 269.025 26.1398 269.065 27.936C269.065 29.7323 268.946 31.3528 268.669 32.7975C268.55 33.5004 268.312 34.1057 267.976 34.6133C267.639 35.1209 267.263 35.57 266.847 35.9409C266.431 36.3119 266.015 36.6438 265.58 36.9171C265.144 37.1905 264.748 37.4248 264.392 37.62V37.6395ZM270.748 61.6152C270.748 63.7628 270.134 65.5005 268.906 66.8086C267.679 68.1167 266.035 69.132 263.996 69.8544C261.956 70.5768 259.62 71.0649 257.006 71.3187C254.392 71.5725 251.719 71.6896 248.986 71.6896C246.254 71.6896 243.58 71.5725 240.967 71.3187C238.353 71.0649 236.016 70.5768 233.977 69.8544C231.937 69.132 230.294 68.1167 229.066 66.8086C227.838 65.5005 227.224 63.7628 227.224 61.6152C227.224 59.4675 227.838 57.7885 229.066 56.4608C230.294 55.1332 231.937 54.0984 233.977 53.376C236.016 52.6536 238.353 52.1655 240.967 51.9117C243.58 51.6579 246.254 51.5212 248.986 51.5212C251.719 51.5212 254.392 51.6579 257.006 51.9117C259.62 52.1655 261.956 52.6536 263.996 53.376C266.035 54.0984 267.679 55.1332 268.906 56.4608C270.134 57.7885 270.748 59.5066 270.748 61.6152ZM260.768 61.6738C260.768 60.8928 259.818 60.3852 257.917 60.1704C256.016 59.9556 253.026 59.8385 248.947 59.8385C244.867 59.8385 241.897 59.9556 240.036 60.1899C238.175 60.4242 237.244 60.9123 237.244 61.6542C237.244 62.3181 238.175 62.7866 240.036 63.0405C241.897 63.2943 244.867 63.4309 248.947 63.4309C253.026 63.4309 256.016 63.3138 257.917 63.0795C259.818 62.8452 260.768 62.3766 260.768 61.6738ZM259.283 27.4479C259.283 27.2917 259.223 27.0965 259.124 26.8622C259.025 26.6279 258.669 26.5108 258.075 26.5108H239.699C239.185 26.5108 238.868 26.6474 238.788 26.9013C238.709 27.1551 238.63 27.3698 238.63 27.5065V29.0294C238.67 29.8104 239.026 30.2594 239.699 30.3766C240.769 30.5718 242.155 30.728 243.858 30.8647C245.561 31.0013 247.343 31.0599 249.204 31.0599C250.947 31.0599 252.59 31.0013 254.115 30.8647C255.639 30.728 256.907 30.5913 257.897 30.4742C258.768 30.318 259.223 29.8299 259.263 29.0099V27.4284L259.283 27.4479Z" fill="white"/>
<path d="M281.499 42.9892C280.945 42.9111 280.41 42.7744 279.855 42.5792C279.321 42.3839 278.846 42.1106 278.43 41.7591C278.014 41.4077 277.697 40.9586 277.479 40.412C277.261 39.8653 277.182 39.2015 277.261 38.4205C277.341 37.7567 277.558 37.21 277.915 36.7805C278.271 36.351 278.727 35.9995 279.261 35.7457C279.796 35.4919 280.35 35.3162 280.964 35.2185C281.558 35.1209 282.113 35.1014 282.628 35.1405C284.172 35.2966 286.014 35.4333 288.152 35.5309C290.291 35.6286 292.588 35.7067 295.023 35.7652C297.459 35.8238 299.974 35.8628 302.548 35.8824C305.122 35.9019 307.637 35.8824 310.072 35.8628C312.508 35.8238 314.785 35.7457 316.904 35.6286C319.023 35.5114 320.844 35.3552 322.349 35.16C322.904 35.1209 323.498 35.16 324.111 35.2185C324.725 35.2966 325.28 35.4528 325.814 35.7067C326.329 35.9605 326.765 36.3119 327.121 36.761C327.478 37.21 327.676 37.8348 327.715 38.6158C327.755 39.3186 327.656 39.9239 327.418 40.4705C327.181 40.9977 326.844 41.4468 326.428 41.7787C326.012 42.1301 325.537 42.4034 325.022 42.5987C324.508 42.7939 323.993 42.9306 323.478 43.0087C322.29 43.1258 320.626 43.243 318.488 43.3601C316.349 43.4773 313.953 43.5554 311.3 43.5944C308.647 43.6335 305.855 43.6725 302.924 43.6725C299.993 43.692 297.162 43.6725 294.449 43.6139C291.736 43.5554 289.241 43.4773 286.964 43.3796C284.687 43.282 282.865 43.1454 281.519 42.9892H281.499ZM291.182 62.8062C291.182 63.1576 291.38 63.3528 291.776 63.3919C292.489 63.509 293.34 63.6067 294.33 63.6847C295.32 63.7628 296.37 63.8214 297.479 63.88C298.588 63.9386 299.716 63.9776 300.845 63.9971C301.974 63.9971 303.043 64.0167 304.033 64.0167C305.261 64.0167 306.528 63.9971 307.835 63.9386C309.142 63.88 310.449 63.7824 311.736 63.6847C313.023 63.5676 314.29 63.4309 315.518 63.2747C316.745 63.1185 317.854 62.9428 318.844 62.7476C319.32 62.6304 319.834 62.5719 320.349 62.5719C320.864 62.5719 321.399 62.65 321.894 62.8062C322.389 62.9624 322.824 63.2162 323.201 63.6066C323.577 63.9971 323.854 64.4657 324.013 65.0905C324.25 66.0667 324.052 66.9453 323.438 67.7067C322.824 68.4682 322.112 68.9953 321.32 69.2686C320.131 69.6591 318.785 69.9715 317.3 70.2058C315.815 70.4401 314.29 70.6158 312.726 70.772C311.161 70.9282 309.597 71.0063 308.033 71.0649C306.468 71.1234 304.983 71.143 303.597 71.143C302.211 71.143 300.766 71.143 299.142 71.0844C297.518 71.0453 295.895 70.9673 294.291 70.8501C292.687 70.733 291.182 70.5768 289.796 70.362C288.41 70.1472 287.261 69.8739 286.35 69.5615C285.479 69.2101 284.568 68.6439 283.618 67.8629C282.667 67.0819 282.053 66.0667 281.776 64.8171C281.618 64.1533 281.539 63.4895 281.519 62.8257C281.499 62.1619 281.499 61.5176 281.519 60.9123C281.519 60.3071 281.578 59.7604 281.677 59.2723C281.756 58.7842 281.816 58.3937 281.855 58.1399C281.974 57.4761 282.192 56.9294 282.509 56.4608C282.826 55.9922 283.162 55.6408 283.558 55.3479C283.935 55.0551 284.331 54.8403 284.746 54.7036C285.162 54.567 285.519 54.4889 285.835 54.4889H313.359V53.4346C313.359 53.1222 313.181 52.966 312.825 52.966H285.835C285.004 52.966 284.212 52.6146 283.479 51.9117C282.746 51.2088 282.37 50.3302 282.37 49.2759C282.37 48.3388 282.727 47.5188 283.42 46.8159C284.113 46.113 284.925 45.7616 285.835 45.7616H317.815C319.201 45.7616 320.349 46.1521 321.24 46.9135C322.131 47.675 322.666 48.6121 322.824 49.7055C323.062 51.3455 323.161 52.8488 323.082 54.196C323.022 55.5432 322.904 56.7341 322.686 57.7494C322.448 58.9599 321.894 59.9361 321.003 60.6585C320.112 61.3809 319.201 61.7519 318.29 61.7519H291.182V62.8647V62.8062ZM321.795 31.919C321.716 32.2704 321.537 32.6609 321.221 33.0904C320.923 33.5199 320.547 33.8909 320.072 34.2033C319.597 34.5157 319.023 34.7695 318.369 34.9452C317.716 35.1209 316.963 35.1209 316.151 34.9647C315.32 34.8085 314.627 34.5547 314.092 34.1642C313.557 33.7933 313.122 33.3833 312.805 32.9342C312.488 32.4852 312.29 32.0361 312.211 31.5871C312.132 31.138 312.151 30.728 312.27 30.3766C312.349 30.1423 312.429 29.8494 312.468 29.498C312.528 29.1465 312.567 28.7561 312.627 28.3265V27.7603C312.627 27.5456 312.547 27.3503 312.429 27.1746C312.29 26.9989 312.072 26.8427 311.795 26.706C311.518 26.5694 311.102 26.4913 310.548 26.4913H286.113C285.558 26.4913 285.043 26.3741 284.588 26.1008C284.133 25.847 283.737 25.5346 283.4 25.1636C283.063 24.7927 282.806 24.3631 282.628 23.9141C282.449 23.4455 282.35 22.9769 282.35 22.5083C282.35 21.9226 282.489 21.3955 282.746 20.9269C283.004 20.4583 283.321 20.0483 283.697 19.6969C284.073 19.3454 284.469 19.0721 284.925 18.8768C285.36 18.6816 285.756 18.584 286.113 18.584H317.26C317.696 18.584 318.171 18.6621 318.686 18.8378C319.201 19.0135 319.696 19.2673 320.171 19.6383C320.646 19.9897 321.082 20.4583 321.478 21.0245C321.874 21.5907 322.131 22.274 322.25 23.055C322.527 24.6169 322.587 26.1789 322.428 27.7213C322.27 29.2637 322.052 30.6694 321.775 31.919H321.795Z" fill="white"/>
<path d="M337.776 45.9177C337.3 46.1129 336.746 46.2301 336.112 46.2691C335.479 46.3082 334.865 46.2691 334.231 46.0934C333.597 45.9177 333.043 45.6834 332.528 45.2929C332.013 44.9024 331.617 44.4338 331.34 43.8481C330.984 43.0672 330.805 42.3252 330.786 41.6419C330.766 40.9585 330.865 40.3338 331.122 39.7676C331.36 39.2014 331.697 38.7133 332.132 38.2642C332.568 37.8152 333.043 37.5028 333.558 37.2685C335.023 36.6047 336.37 35.8627 337.597 35.0427C338.825 34.2227 339.874 33.266 340.746 32.1727C341.617 31.0793 342.31 29.8298 342.805 28.424C343.3 27.0183 343.558 25.3978 343.558 23.5625V21.8054C343.558 20.9853 343.973 20.1849 344.845 19.4234C345.696 18.662 346.864 18.291 348.33 18.291C349.003 18.291 349.656 18.3691 350.29 18.5448C350.924 18.7205 351.478 18.9744 351.953 19.2867C352.429 19.5991 352.825 19.9701 353.122 20.3996C353.419 20.8292 353.557 21.2977 353.557 21.8054V23.8554C353.557 26.0031 353.221 28.1702 352.547 30.3374C351.874 32.5046 350.864 34.5546 349.538 36.4875C348.211 38.4204 346.567 40.1971 344.607 41.8176C342.647 43.4381 340.37 44.8048 337.795 45.8982L337.776 45.9177ZM373.735 48.9049C374.17 48.9049 374.626 48.983 375.101 49.1392C375.576 49.2954 376.032 49.5687 376.467 49.9592C376.903 50.3497 377.299 50.8573 377.636 51.4625C377.972 52.0678 378.21 52.8292 378.309 53.7273C378.428 54.6645 378.507 55.7383 378.547 56.9488C378.586 58.1593 378.586 59.4089 378.566 60.6779C378.547 61.947 378.487 63.177 378.388 64.368C378.289 65.559 378.151 66.6133 377.992 67.5114C377.913 67.98 377.735 68.4681 377.418 68.9562C377.121 69.4443 376.725 69.8738 376.23 70.2448C375.735 70.6157 375.161 70.8891 374.507 71.0648C373.854 71.2405 373.101 71.2405 372.289 71.0843C371.458 70.9281 370.765 70.6743 370.23 70.2838C369.695 69.9128 369.28 69.4638 368.982 68.9757C368.685 68.4681 368.487 67.9409 368.408 67.4138C368.329 66.8866 368.329 66.418 368.408 65.969C368.527 65.0709 368.626 64.1337 368.705 63.1575C368.784 62.1813 368.824 61.0684 368.824 59.8189C368.824 59.0379 368.626 58.5498 368.23 58.3741C367.834 58.1984 367.28 58.1203 366.567 58.1203H340.647C339.498 58.1203 338.607 57.6712 337.974 56.7731C337.34 55.875 337.023 54.8207 337.023 53.6102C337.023 52.3997 337.32 51.3259 337.914 50.3497C338.508 49.393 339.379 48.9049 340.528 48.9049H373.695H373.735ZM365.062 37.7761C365.656 38.2056 366.072 38.7328 366.309 39.3576C366.547 39.9823 366.646 40.6266 366.606 41.2709C366.567 41.9152 366.408 42.54 366.151 43.1453C365.893 43.7505 365.577 44.2581 365.161 44.6291C364.765 45.0586 364.29 45.3905 363.735 45.6053C363.181 45.8201 362.606 45.9372 362.012 45.9567C361.418 45.9762 360.824 45.9177 360.27 45.781C359.696 45.6443 359.201 45.4296 358.805 45.0977L353.28 40.9976C352.844 40.6462 352.508 40.1776 352.27 39.6114C352.033 39.0452 351.914 38.4595 351.914 37.8542C351.914 37.249 352.013 36.6437 352.25 36.0385C352.468 35.4332 352.785 34.8865 353.181 34.418C353.617 33.9494 354.112 33.5979 354.666 33.3441C355.221 33.0903 355.815 32.9341 356.428 32.8951C357.042 32.856 357.656 32.9146 358.25 33.0708C358.844 33.227 359.359 33.4808 359.795 33.8322L365.082 37.7566L365.062 37.7761ZM378.487 22.5473C378.883 25.9445 379.061 29.3807 379.022 32.856C378.982 36.3313 378.804 39.748 378.487 43.1062C378.448 43.731 378.269 44.3167 377.952 44.8634C377.636 45.4101 377.24 45.8786 376.764 46.2496C376.289 46.6205 375.735 46.8939 375.101 47.0891C374.467 47.2844 373.794 47.3429 373.081 47.2648C371.576 47.0696 370.428 46.4839 369.636 45.5272C368.844 44.5705 368.487 43.4967 368.567 42.3252C368.725 40.5681 368.844 38.928 368.903 37.4052C368.963 35.8823 368.982 34.3789 368.982 32.9146C368.982 31.4503 368.943 29.9469 368.864 28.4045C368.784 26.8621 368.685 25.1635 368.567 23.3282C368.487 22.1958 368.824 21.1415 369.577 20.1849C370.329 19.2282 371.438 18.6425 372.903 18.4472C374.368 18.252 375.616 18.5644 376.646 19.3844C377.675 20.2044 378.289 21.2392 378.487 22.4887V22.5473Z" fill="white"/>
<path d="M412.783 38.5959C413.258 38.4007 413.793 38.264 414.387 38.2054C414.981 38.1468 415.575 38.1664 416.169 38.2835C416.763 38.4007 417.297 38.6349 417.773 38.9473C418.248 39.2792 418.565 39.7869 418.723 40.4507C418.921 41.1926 418.941 41.8564 418.802 42.4421C418.664 43.0279 418.426 43.5355 418.109 43.9455C417.792 44.3555 417.436 44.6874 417.04 44.9412C416.644 45.1951 416.288 45.4098 415.971 45.566C414.307 46.347 412.367 46.8741 410.169 47.1279C407.971 47.3818 405.694 47.4989 403.357 47.4989C402.288 47.4989 401.199 47.4599 400.09 47.3818C398.981 47.3037 397.912 47.1865 396.882 47.0303C395.853 46.8741 394.902 46.6984 394.031 46.5032C393.16 46.3079 392.427 46.0932 391.833 45.8589C391.437 45.6636 391.001 45.4098 390.546 45.117C390.09 44.8241 389.635 44.4727 389.219 44.0822C388.783 43.6917 388.387 43.2231 388.051 42.696C387.714 42.1688 387.477 41.5831 387.378 40.8997C387.1 39.2207 386.981 37.7564 387.021 36.5263C387.061 35.2963 387.18 34.0468 387.378 32.7972C387.457 32.2115 387.655 31.6843 387.972 31.1767C388.288 30.6886 388.665 30.2786 389.1 29.9076C389.536 29.5562 390.011 29.3024 390.506 29.1072C391.001 28.9314 391.457 28.8533 391.853 28.8533H413.971C414.882 28.8533 415.753 29.1853 416.565 29.8491C417.377 30.5129 417.792 31.4305 417.792 32.602C417.792 33.5782 417.436 34.4568 416.743 35.2377C416.05 36.0187 415.119 36.4092 413.971 36.4092H397.872C397.318 36.4092 396.981 36.5263 396.882 36.7606C396.783 36.9949 396.724 37.1706 396.724 37.2878V38.0492C396.724 38.6349 397.06 39.0254 397.734 39.2207C398.526 39.4159 399.437 39.5331 400.446 39.5721C401.456 39.6111 402.545 39.6307 403.694 39.6307C405.476 39.6307 407.219 39.5135 408.921 39.2988C410.624 39.084 411.911 38.8107 412.783 38.4983V38.5959ZM391.259 26.8814C390.308 26.8814 389.476 26.5104 388.783 25.749C388.09 24.9876 387.734 24.1285 387.734 23.1328C387.734 22.137 388.071 21.2585 388.744 20.4384C389.417 19.6184 390.249 19.2084 391.239 19.2084H414.189C415.06 19.2084 415.892 19.5794 416.684 20.3018C417.476 21.0242 417.872 21.9418 417.872 23.0937C417.872 24.0699 417.515 24.9485 416.802 25.7295C416.09 26.5104 415.218 26.9009 414.189 26.9009H391.239L391.259 26.8814ZM427.693 50.0956C428.129 50.0956 428.584 50.1737 429.059 50.3299C429.535 50.4861 429.99 50.7594 430.426 51.1499C430.861 51.5404 431.257 52.048 431.574 52.6533C431.891 53.2585 432.148 54.02 432.267 54.9181C432.386 55.8552 432.465 56.8705 432.505 57.9638C432.544 59.0572 432.564 60.1701 432.544 61.2829C432.525 62.3958 432.465 63.4892 432.366 64.563C432.267 65.6368 432.129 66.6326 431.97 67.5307C431.891 67.9993 431.713 68.4874 431.396 68.9755C431.099 69.4636 430.703 69.8931 430.208 70.2641C429.713 70.635 429.139 70.9083 428.485 71.0841C427.832 71.2598 427.079 71.2598 426.248 71.1036C425.416 70.9474 424.743 70.6936 424.228 70.3422C423.713 69.9907 423.317 69.5807 423 69.1121C422.683 68.6435 422.505 68.1359 422.426 67.6283C422.347 67.1011 422.327 66.5545 422.367 66.0078C422.446 65.1097 422.525 64.192 422.644 63.2549C422.743 62.3177 422.782 61.5758 422.782 61.0291C422.782 60.2482 422.584 59.7601 422.188 59.5843C421.792 59.4086 421.238 59.311 420.525 59.311H394.605C393.575 59.311 392.704 58.862 392.011 57.9638C391.318 57.0657 390.962 56.0114 390.962 54.8009C390.962 53.5904 391.298 52.4971 391.952 51.5404C392.605 50.5837 393.437 50.0956 394.486 50.0956H427.654H427.693ZM431.733 22.547C431.812 23.5233 431.891 24.519 431.97 25.5147C432.049 26.5104 432.109 27.5452 432.148 28.5995H435.237C435.792 28.5995 436.307 28.7167 436.762 28.99C437.218 29.2438 437.633 29.5757 437.99 30.0053C438.346 30.4348 438.623 30.9229 438.821 31.4696C439.019 32.0163 439.119 32.5825 439.119 33.1682C439.119 33.6758 439.039 34.203 438.92 34.7496C438.782 35.2963 438.564 35.8039 438.267 36.2725C437.97 36.7411 437.594 37.1316 437.138 37.4049C436.683 37.6978 436.148 37.854 435.554 37.854H432.168C432.129 38.9864 432.069 40.0993 431.99 41.1731C431.911 42.2469 431.832 43.2817 431.752 44.3165C431.713 44.9412 431.535 45.527 431.218 46.0736C430.901 46.6203 430.505 47.0889 430.03 47.4599C429.554 47.8308 429 48.1237 428.366 48.3189C427.733 48.5142 427.059 48.5727 426.347 48.4946C424.842 48.2994 423.693 47.7332 422.901 46.7765C422.109 45.8198 421.753 44.746 421.832 43.5745C421.99 41.8174 422.089 40.1188 422.169 38.4787C422.228 36.8387 422.248 35.1987 422.248 33.5782C422.248 31.9577 422.208 30.3177 422.129 28.6581C422.05 26.9985 421.951 25.2414 421.832 23.4061C421.753 22.2737 422.089 21.2194 422.842 20.2627C423.594 19.306 424.703 18.7203 426.168 18.5251C427.634 18.3298 428.881 18.6422 429.911 19.4622C430.941 20.2822 431.554 21.317 431.752 22.5666L431.733 22.547Z" fill="white"/>
<path d="M118.177 29.0869C117.108 28.5793 117.544 23.5225 118.534 23.1906C119.524 22.8587 123.227 25.4164 123.049 26.4316C122.87 27.4469 119.247 29.6141 118.177 29.0869Z" fill="white"/>
<path d="M126.475 44.9995C128.367 44.9995 129.901 43.4873 129.901 41.6218C129.901 39.7564 128.367 38.2441 126.475 38.2441C124.584 38.2441 123.05 39.7564 123.05 41.6218C123.05 43.4873 124.584 44.9995 126.475 44.9995Z" fill="white"/>
<path d="M175.681 42.3442C177.572 42.3442 179.106 40.832 179.106 38.9665C179.106 37.1011 177.572 35.5889 175.681 35.5889C173.789 35.5889 172.255 37.1011 172.255 38.9665C172.255 40.832 173.789 42.3442 175.681 42.3442Z" fill="white"/>
<path d="M195.305 42.2852C198.493 51.5201 203.007 60.1107 206.71 69.1504C206.393 69.3652 206.116 69.5604 205.68 69.8533C205.364 69.4237 205.067 69.0918 204.888 68.7013C202.017 62.2584 199.146 55.7959 196.334 49.3334C195.522 47.4786 194.889 45.5262 194.176 43.6323C194.057 43.3199 193.938 43.0271 193.8 42.6952C193.423 42.6952 193.087 42.6952 192.77 42.6952C189.641 42.6952 187.146 41.4261 185.443 38.8294C183.899 36.4865 183.285 33.8117 182.81 31.0978C182.572 29.6726 182.493 28.2083 182.354 26.7635C182.295 26.002 182.315 25.9825 182.85 25.2211C183.107 25.2992 183.404 25.3968 183.701 25.4944C183.978 27.6811 184.216 29.7702 184.533 31.8593C184.869 34.046 185.443 36.1546 186.731 38.0289C189.384 41.9142 194.829 42.2266 197.879 38.6732C199.72 36.5451 199.621 33.8117 197.819 31.664C195.72 29.1845 193.74 26.6073 191.701 24.0691C190.117 22.1167 188.235 20.5743 185.741 19.891C179.305 18.1143 171.285 21.6091 168.89 27.7983C168.612 28.5011 168.295 29.1649 167.979 29.8483C166.692 32.5621 164.474 34.0069 161.504 34.3974C161.187 34.4365 160.85 34.495 160.474 34.5536C160.296 36.3303 159.464 37.5603 157.563 37.9118C157.88 40.528 158.731 42.7147 161.028 44.179C162.791 45.3114 164.731 45.9362 166.81 46.1509C168.315 46.3071 169.82 46.4438 171.325 46.6195C171.781 46.6781 172.236 46.7757 172.691 46.8733C175.028 47.3614 176.592 48.7086 177.444 50.8953C178.434 53.4335 179.067 56.0497 179.206 58.744C179.404 62.6488 179.305 66.5342 178.711 70.3999C178.592 71.1028 178.691 71.9228 177.86 72.4695C177.563 72.3523 177.226 72.2352 176.83 72.079C176.929 71.4347 177.028 70.8685 177.107 70.3023C177.86 65.3627 178.196 60.4036 177.226 55.464C176.929 53.9411 176.295 52.4572 175.78 50.9734C175.345 49.7434 174.414 48.9624 173.186 48.611C172.177 48.3377 171.147 48.201 170.097 48.0643C168.137 47.791 166.157 47.7129 164.236 47.2638C160.771 46.4633 158.217 44.4914 156.771 41.1723C155.999 39.3761 155.88 37.5603 156.098 35.686C156.276 34.1436 157.128 33.3626 158.731 33.1088C159.761 32.9526 160.83 32.9136 161.86 32.7379C164.137 32.3669 165.781 31.1759 166.652 28.9892C167.028 28.0325 167.503 27.0954 167.979 26.1778C170.553 21.2577 174.85 18.8562 180.196 17.9776C181.84 17.7043 183.463 17.8214 185.087 18.1143C188.315 18.7195 190.81 20.4181 192.79 22.9367C194.968 25.6897 197.146 28.423 199.285 31.1955C201.879 34.5927 201.027 38.8684 197.364 41.1723C196.77 41.5433 196.116 41.8556 195.324 42.2852H195.305Z" fill="white"/>
<path d="M101.248 69.8145C100.813 69.7364 100.416 69.6583 99.8818 69.5607C100.06 68.9164 100.139 68.3892 100.337 67.9207C101.921 64.1525 103.941 60.6186 106.555 57.4362C107.703 56.05 108.832 54.6638 109.882 53.219C110.733 52.0475 111.505 50.798 112.218 49.5289C113.208 47.7522 113.446 45.8388 112.832 43.8669C111.921 40.9969 112.099 38.1268 112.931 35.2958C113.169 34.5148 113.466 33.7144 113.901 33.0115C114.357 32.25 114.495 31.5081 114.396 30.6491C114 27.2714 114.317 23.9523 115.168 20.6722C115.386 19.8717 115.644 19.0713 115.98 18.3293C116.515 17.1579 117.366 16.8455 118.555 17.3727C119.089 17.6069 119.624 17.8998 120.059 18.2708C121.564 19.5203 123.049 20.8089 124.515 22.117C124.95 22.5075 125.267 22.9956 125.584 23.3666C126.693 23.2494 127.564 23.1127 128.435 23.0542C129.267 23.0151 130.099 23.0542 131.208 23.0542C131.326 22.9175 131.584 22.5465 131.901 22.2342C133.049 21.0237 134.178 19.8132 135.366 18.6222C135.663 18.3293 136.019 18.095 136.396 17.9193C137.603 17.3336 138.495 17.6655 138.792 18.9736C139.168 20.6332 139.366 22.3123 139.564 23.9913C139.663 24.8113 139.564 25.6509 139.564 26.588C140.989 27.7595 141.801 29.3995 142.514 31.0786C143.128 32.5234 144.296 33.1091 145.762 33.2458C145.88 33.2458 146.019 33.2458 146.138 33.2458C147.88 33.3824 148.791 34.0853 149.088 35.7839C149.742 39.6106 148.791 42.9493 145.742 45.546C144.89 46.2684 143.9 46.8541 142.89 47.3422C141.326 48.1232 139.702 48.8456 138.059 49.4899C133.841 51.1494 131.584 54.3904 130.554 58.5491C129.544 62.6491 129.425 66.8273 130.158 71.025C130.237 71.5131 130.257 72.0012 130.297 72.4698C129.386 73.2117 128.792 73.075 128.594 72.0402C128.455 71.3178 128.416 70.5564 128.356 69.8145C128 65.6168 128.079 61.4386 129.307 57.3581C130.198 54.3904 131.584 51.7156 134.217 49.8803C135.247 49.1775 136.376 48.6113 137.504 48.0451C139.504 47.0689 141.544 46.2098 143.524 45.1946C144.811 44.5307 145.861 43.574 146.554 42.2855C146.712 41.9926 146.831 41.6997 147.049 41.2116C145.504 41.7193 144.118 41.9145 142.95 40.7626C142.435 40.2549 142.376 40.0207 142.475 39.0054C142.712 38.9664 142.989 38.9078 143.267 38.8687C143.564 39.2202 143.841 39.513 144.098 39.8059C146.019 40.4697 147.187 39.6887 147.564 37.3849C146.356 36.9163 145.286 36.2134 145.108 34.7296C144.91 34.632 144.732 34.5148 144.534 34.4758C142.871 34.1244 141.801 33.0701 141.108 31.6057C140.989 31.3519 140.831 31.0981 140.732 30.8248C139.742 28.3062 137.821 26.7247 135.326 25.7485C132.396 24.6161 129.406 24.2647 126.297 24.8894C125.94 24.9675 125.564 24.9871 125.109 25.0456C122.95 22.6051 120.693 20.2622 117.604 18.6612C117.347 19.1884 117.069 19.6375 116.891 20.1256C115.664 23.6594 115.565 27.2714 115.98 30.9419C116.02 31.3129 116.079 31.6838 116.139 32.0743C115.01 33.6167 114.277 35.3153 113.98 37.1897C113.664 39.103 113.505 41.0164 114.139 42.8517C115.327 46.327 114.396 49.4118 112.456 52.2818C111.228 54.1171 109.763 55.7962 108.476 57.5729C106.931 59.701 105.387 61.8096 103.981 64.0353C103.129 65.402 102.575 66.9444 101.902 68.4088C101.704 68.8578 101.486 69.3069 101.248 69.8535V69.8145ZM137.326 19.3251C135.802 19.8522 133.683 21.9803 133.208 23.347C134.039 23.6204 134.891 23.8547 135.683 24.1866C136.475 24.5185 137.207 24.948 138.138 25.4166C138.079 23.2689 137.9 21.3165 137.326 19.3251Z" fill="white"/>
<path d="M152.653 19.2268C153.564 18.9144 154.257 18.5825 154.989 18.4458C156.93 18.0944 158.652 19.383 158.811 21.3159C158.87 22.0383 158.732 22.7997 158.494 23.5026C158.098 24.7131 157.306 25.7088 156.316 26.4898C155.227 27.3293 154.098 28.1298 152.93 28.9693C150.89 27.7198 149.029 26.4702 147.643 24.6545C146.732 23.4635 146.653 22.0968 147.029 20.7301C147.584 18.7192 149.9 17.7625 151.781 18.7192C152.118 18.8949 152.435 19.0901 152.653 19.2268ZM152.791 27.0364C154.435 26.2164 155.682 25.2207 156.573 24.0883C157.187 23.3073 157.544 22.4287 157.405 21.433C157.266 20.3397 156.336 19.6368 155.247 19.8906C154.732 20.0078 154.257 20.3006 153.801 20.5935C153.465 20.8082 153.168 21.1011 152.811 21.3744C152.356 20.984 152.019 20.6325 151.623 20.3397C150.772 19.7149 149.88 19.6563 149.168 20.1249C148.395 20.652 148.039 21.7064 148.336 22.663C148.653 23.6392 149.227 24.4593 150.039 25.084C150.93 25.7674 151.861 26.3921 152.791 27.0364Z" fill="white"/>
<path d="M172.276 31.3906C173.286 31.4101 174.018 32.2302 173.998 33.2845C173.998 34.3192 173.206 35.0612 172.137 35.0416C171.167 35.0221 170.434 34.1631 170.494 33.0892C170.553 32.0544 171.246 31.3711 172.256 31.4101L172.276 31.3906Z" fill="white"/>
<path d="M137.247 35.0608C137.227 36.0175 136.455 36.7399 135.425 36.7399C134.416 36.7399 133.742 36.0175 133.762 34.9632C133.762 33.9089 134.475 33.1865 135.465 33.1865C136.455 33.1865 137.267 34.0651 137.247 35.0608Z" fill="white"/>
</g>
<defs>
<clipPath id="clip0_224_1061">
<rect width="339.237" height="55.8" fill="white" transform="translate(99.8818 17.0996)"/>
</clipPath>
</defs>
</svg>
