<svg width="491" height="82" viewBox="0 0 491 82" fill="none" xmlns="http://www.w3.org/2000/svg">
<g clip-path="url(#clip0_224_857)">
<path d="M238.166 30.4471C237.484 30.783 236.574 31.0909 235.437 31.3708C234.3 31.6507 233.077 31.9026 231.713 32.0706C230.377 32.2665 228.984 32.4345 227.534 32.6304C226.085 32.7984 224.635 32.9383 223.214 33.0503V35.6535C227.421 35.5975 231.4 35.4856 235.124 35.3176C238.848 35.1497 242.003 34.9257 244.562 34.6458C245.358 34.5898 246.21 34.6458 247.092 34.7298C247.973 34.8418 248.769 35.1217 249.536 35.5416C250.275 35.9614 250.901 36.5493 251.412 37.305C251.924 38.0608 252.208 39.0405 252.265 40.2161C252.322 41.2798 252.18 42.2315 251.839 43.0433C251.498 43.8551 251.015 44.5548 250.418 45.1147C249.821 45.6745 249.138 46.1224 248.399 46.4583C247.66 46.7942 246.921 47.0181 246.182 47.1301C244.476 47.354 242.089 47.522 239.019 47.6619C235.949 47.8019 232.509 47.9138 228.7 47.9978C224.891 48.0818 220.883 48.1378 216.675 48.1658C212.468 48.1658 208.403 48.1658 204.509 48.1098C200.615 48.0538 197.033 47.9418 193.764 47.7739C190.495 47.6059 187.88 47.382 185.947 47.1021C185.151 46.9901 184.383 46.7662 183.587 46.4303C182.82 46.0944 182.138 45.6465 181.541 45.0867C180.944 44.5269 180.489 43.8271 180.176 42.9873C179.863 42.1476 179.75 41.1399 179.863 39.9642C179.977 38.9565 180.29 38.0888 180.801 37.361C181.313 36.6332 181.967 36.0734 182.734 35.6255C183.502 35.2057 184.298 34.9257 185.179 34.7858C186.032 34.6458 186.828 34.5898 187.567 34.6738C190.182 34.9537 193.337 35.1497 197.033 35.2896C200.728 35.4296 204.68 35.5695 208.887 35.6535V32.9663C207.465 32.8544 206.016 32.7144 204.537 32.5465C203.059 32.3785 201.638 32.2106 200.302 31.9866C198.966 31.7907 197.8 31.5667 196.749 31.3148C195.725 31.0629 194.901 30.783 194.276 30.5031C193.082 29.9432 191.802 29.1035 190.438 28.0118C189.074 26.9201 188.221 25.4646 187.88 23.6731C187.652 22.4975 187.51 21.2658 187.396 19.9782C187.311 18.6906 187.283 17.403 187.283 16.1434C187.283 14.8837 187.34 13.6521 187.396 12.4765C187.482 11.3008 187.624 10.2651 187.794 9.3694C187.965 8.47367 188.278 7.63392 188.761 6.85016C189.244 6.06639 189.813 5.39459 190.466 4.83476C191.12 4.27493 191.802 3.82706 192.513 3.54715C193.224 3.23924 193.878 3.07129 194.446 3.07129H237.37C237.938 3.07129 238.592 3.21125 239.331 3.54715C240.07 3.85505 240.781 4.30292 241.52 4.89074C242.231 5.47857 242.828 6.17836 243.368 6.96212C243.88 7.74589 244.221 8.61363 244.391 9.56534C244.675 11.6367 244.818 13.96 244.874 16.5353C244.874 19.1105 244.704 21.4338 244.306 23.5052C244.135 24.5129 243.794 25.3806 243.311 26.1084C242.828 26.8362 242.288 27.48 241.691 28.0118C241.094 28.5436 240.497 29.0195 239.871 29.4114C239.246 29.8033 238.677 30.1392 238.166 30.4191V30.4471ZM247.291 64.8208C247.291 67.8998 246.409 70.3911 244.647 72.2665C242.885 74.142 240.525 75.5975 237.597 76.6332C234.669 77.6689 231.315 78.3687 227.563 78.7326C223.811 79.0965 219.973 79.2644 216.05 79.2644C212.127 79.2644 208.29 79.0965 204.537 78.7326C200.785 78.3687 197.431 77.6689 194.503 76.6332C191.575 75.5975 189.216 74.142 187.453 72.2665C185.691 70.3911 184.81 67.8998 184.81 64.8208C184.81 61.7417 185.691 59.3344 187.453 57.431C189.216 55.5276 191.575 54.044 194.503 53.0083C197.431 51.9726 200.785 51.2728 204.537 50.9089C208.29 50.5451 212.127 50.3491 216.05 50.3491C219.973 50.3491 223.811 50.5451 227.563 50.9089C231.315 51.2728 234.669 51.9726 237.597 53.0083C240.525 54.044 242.885 55.5276 244.647 57.431C246.409 59.3344 247.291 61.7977 247.291 64.8208ZM232.964 64.9047C232.964 63.7851 231.599 63.0573 228.87 62.7494C226.141 62.4415 221.849 62.2735 215.993 62.2735C210.137 62.2735 205.873 62.4415 203.201 62.7774C200.529 63.1133 199.193 63.8131 199.193 64.8768C199.193 65.8285 200.529 66.5003 203.201 66.8642C205.873 67.2281 210.137 67.424 215.993 67.424C221.849 67.424 226.141 67.256 228.87 66.9201C231.599 66.5842 232.964 65.9124 232.964 64.9047ZM230.832 15.8355C230.832 15.6115 230.747 15.3316 230.604 14.9957C230.462 14.6598 229.951 14.4919 229.098 14.4919H202.718C201.979 14.4919 201.524 14.6878 201.411 15.0517C201.297 15.4156 201.183 15.7235 201.183 15.9194V18.1028C201.24 19.2224 201.752 19.8663 202.718 20.0342C204.253 20.3141 206.243 20.5381 208.688 20.734C211.132 20.9299 213.691 21.0139 216.363 21.0139C218.864 21.0139 221.224 20.9299 223.413 20.734C225.601 20.5381 227.421 20.3421 228.842 20.1742C230.093 19.9502 230.747 19.2504 230.803 18.0748V15.8075L230.832 15.8355Z" fill="white"/>
<path d="M262.725 38.1174C261.929 38.0055 261.162 37.8095 260.366 37.5296C259.598 37.2497 258.916 36.8578 258.319 36.354C257.722 35.8501 257.267 35.2063 256.954 34.4225C256.642 33.6388 256.528 32.6871 256.642 31.5674C256.755 30.6157 257.068 29.8319 257.58 29.2161C258.091 28.6003 258.745 28.0964 259.513 27.7325C260.28 27.3687 261.076 27.1167 261.957 26.9768C262.81 26.8368 263.606 26.8088 264.345 26.8648C266.563 27.0887 269.206 27.2847 272.276 27.4246C275.346 27.5646 278.644 27.6766 282.14 27.7605C285.637 27.8445 289.247 27.9005 292.942 27.9285C296.638 27.9565 300.248 27.9285 303.744 27.9005C307.241 27.8445 310.51 27.7325 313.551 27.5646C316.593 27.3966 319.208 27.1727 321.368 26.8928C322.164 26.8368 323.017 26.8928 323.898 26.9768C324.78 27.0887 325.576 27.3127 326.343 27.6766C327.082 28.0405 327.708 28.5443 328.219 29.1881C328.731 29.8319 329.015 30.7276 329.072 31.8473C329.129 32.855 328.987 33.7227 328.646 34.5065C328.305 35.2623 327.821 35.9061 327.224 36.382C326.627 36.8858 325.945 37.2777 325.206 37.5576C324.467 37.8375 323.728 38.0335 322.989 38.1454C321.283 38.3134 318.895 38.4813 315.825 38.6493C312.755 38.8172 309.316 38.9292 305.507 38.9852C301.697 39.0411 297.689 39.0971 293.482 39.0971C289.275 39.1251 285.21 39.0971 281.316 39.0132C277.421 38.9292 273.84 38.8172 270.571 38.6773C267.302 38.5373 264.686 38.3414 262.753 38.1174H262.725ZM276.625 66.5289C276.625 67.0328 276.91 67.3127 277.478 67.3687C278.502 67.5366 279.724 67.6766 281.145 67.7885C282.567 67.9005 284.073 67.9845 285.665 68.0684C287.257 68.1524 288.877 68.2084 290.497 68.2364C292.118 68.2364 293.653 68.2644 295.074 68.2644C296.837 68.2644 298.656 68.2364 300.532 68.1524C302.408 68.0684 304.284 67.9285 306.132 67.7885C307.98 67.6206 309.799 67.4246 311.561 67.2007C313.324 66.9768 314.916 66.7248 316.337 66.4449C317.019 66.277 317.758 66.193 318.497 66.193C319.237 66.193 320.004 66.305 320.715 66.5289C321.425 66.7528 322.051 67.1167 322.591 67.6766C323.131 68.2364 323.529 68.9082 323.756 69.8039C324.097 71.2035 323.813 72.4631 322.932 73.5548C322.051 74.6465 321.027 75.4022 319.89 75.7941C318.185 76.354 316.252 76.8018 314.12 77.1377C311.988 77.4736 309.799 77.7255 307.553 77.9495C305.308 78.1734 303.062 78.2854 300.816 78.3693C298.571 78.4533 296.439 78.4813 294.449 78.4813C292.459 78.4813 290.384 78.4813 288.053 78.3973C285.722 78.3414 283.391 78.2294 281.088 78.0614C278.786 77.8935 276.625 77.6696 274.636 77.3617C272.646 77.0537 270.997 76.6619 269.689 76.214C268.439 75.7102 267.131 74.8984 265.767 73.7787C264.402 72.6591 263.521 71.2035 263.123 69.412C262.896 68.4603 262.782 67.5086 262.753 66.5569C262.725 65.6052 262.725 64.6815 262.753 63.8137C262.753 62.946 262.839 62.1622 262.981 61.4624C263.094 60.7626 263.18 60.2028 263.237 59.8389C263.407 58.8872 263.72 58.1034 264.175 57.4316C264.63 56.7598 265.113 56.256 265.681 55.8361C266.221 55.4162 266.79 55.1083 267.387 54.9124C267.984 54.7164 268.496 54.6045 268.95 54.6045H308.463V53.0929C308.463 52.6451 308.207 52.4211 307.695 52.4211H268.95C267.756 52.4211 266.619 51.9173 265.568 50.9096C264.516 49.9019 263.976 48.6423 263.976 47.1307C263.976 45.7871 264.487 44.6115 265.482 43.6038C266.477 42.5961 267.643 42.0922 268.95 42.0922H314.859C316.849 42.0922 318.497 42.6521 319.777 43.7437C321.056 44.8354 321.823 46.179 322.051 47.7465C322.392 50.0978 322.534 52.2532 322.42 54.1846C322.335 56.116 322.164 57.8235 321.852 59.2791C321.511 61.0146 320.715 62.4141 319.435 63.4498C318.156 64.4855 316.849 65.0174 315.541 65.0174H276.625V66.6129V66.5289ZM320.573 22.2462C320.459 22.75 320.203 23.3099 319.748 23.9257C319.322 24.5415 318.782 25.0733 318.099 25.5212C317.417 25.9691 316.593 26.333 315.655 26.5849C314.717 26.8368 313.637 26.8368 312.471 26.6129C311.277 26.3889 310.282 26.0251 309.515 25.4652C308.747 24.9334 308.122 24.3456 307.667 23.7018C307.212 23.0579 306.928 22.4141 306.814 21.7703C306.701 21.1265 306.729 20.5387 306.899 20.0349C307.013 19.699 307.127 19.2791 307.184 18.7752C307.269 18.2714 307.326 17.7116 307.411 17.0957V16.284C307.411 15.9761 307.297 15.6962 307.127 15.4442C306.928 15.1923 306.615 14.9684 306.217 14.7724C305.819 14.5765 305.222 14.4645 304.426 14.4645H269.348C268.552 14.4645 267.813 14.2966 267.159 13.9047C266.506 13.5408 265.937 13.0929 265.454 12.5611C264.971 12.0293 264.601 11.4134 264.345 10.7696C264.089 10.0978 263.947 9.42604 263.947 8.75424C263.947 7.91449 264.146 7.15872 264.516 6.48692C264.885 5.81512 265.34 5.2273 265.88 4.72345C266.42 4.2196 266.989 3.82772 267.643 3.5478C268.268 3.26789 268.837 3.12793 269.348 3.12793H314.063C314.688 3.12793 315.371 3.2399 316.11 3.49182C316.849 3.74374 317.559 4.10764 318.242 4.63948C318.924 5.14332 319.549 5.81512 320.118 6.62688C320.686 7.43864 321.056 8.41834 321.226 9.53801C321.624 11.7773 321.71 14.0167 321.482 16.228C321.255 18.4393 320.942 20.4547 320.544 22.2462H320.573Z" fill="white"/>
<path d="M343.514 42.3161C342.831 42.596 342.035 42.764 341.126 42.82C340.216 42.876 339.335 42.82 338.425 42.5681C337.516 42.3161 336.72 41.9802 335.981 41.4204C335.242 40.8606 334.673 40.1888 334.275 39.349C333.763 38.2294 333.508 37.1657 333.479 36.186C333.451 35.2063 333.593 34.3105 333.962 33.4988C334.303 32.687 334.787 31.9872 335.412 31.3434C336.037 30.6996 336.72 30.2517 337.459 29.9158C339.562 28.9641 341.495 27.9004 343.258 26.7248C345.02 25.5492 346.527 24.1776 347.778 22.61C349.028 21.0425 350.023 19.251 350.734 17.2357C351.445 15.2203 351.814 12.897 351.814 10.2657V7.7465C351.814 6.57085 352.411 5.42319 353.662 4.33152C354.884 3.23985 356.561 2.70801 358.665 2.70801C359.631 2.70801 360.569 2.81997 361.479 3.0719C362.389 3.32382 363.185 3.68771 363.867 4.13558C364.549 4.58345 365.118 5.11529 365.544 5.7311C365.97 6.34692 366.169 7.01871 366.169 7.7465V10.6856C366.169 13.7647 365.686 16.8718 364.72 19.9788C363.753 23.0859 362.303 26.025 360.399 28.7962C358.494 31.5674 356.135 34.1146 353.321 36.4379C350.506 38.7612 347.237 40.7206 343.542 42.2881L343.514 42.3161ZM395.136 46.5988C395.761 46.5988 396.415 46.7108 397.097 46.9347C397.779 47.1587 398.433 47.5506 399.059 48.1104C399.684 48.6702 400.253 49.398 400.736 50.2657C401.219 51.1335 401.56 52.2252 401.702 53.5128C401.873 54.8564 401.987 56.3959 402.043 58.1314C402.1 59.8669 402.1 61.6583 402.072 63.4778C402.043 65.2972 401.958 67.0607 401.816 68.7682C401.674 70.4757 401.475 71.9872 401.247 73.2748C401.134 73.9466 400.878 74.6464 400.423 75.3462C399.997 76.046 399.428 76.6618 398.718 77.1937C398.007 77.7255 397.183 78.1174 396.244 78.3693C395.306 78.6212 394.226 78.6212 393.061 78.3973C391.867 78.1734 390.872 77.8095 390.104 77.2496C389.337 76.7178 388.74 76.074 388.313 75.3742C387.887 74.6464 387.603 73.8907 387.489 73.1349C387.375 72.3791 387.375 71.7073 387.489 71.0635C387.66 69.7759 387.802 68.4323 387.916 67.0327C388.029 65.6331 388.086 64.0376 388.086 62.2461C388.086 61.1265 387.802 60.4267 387.233 60.1748C386.665 59.9228 385.869 59.8109 384.845 59.8109H347.635C345.987 59.8109 344.708 59.1671 343.798 57.8795C342.888 56.5918 342.433 55.0803 342.433 53.3448C342.433 51.6093 342.86 50.0698 343.713 48.6702C344.565 47.2986 345.816 46.5988 347.465 46.5988H395.079H395.136ZM382.685 30.6436C383.538 31.2594 384.135 32.0152 384.476 32.9109C384.817 33.8067 384.959 34.7304 384.902 35.6541C384.845 36.5778 384.618 37.4736 384.249 38.3413C383.879 39.2091 383.424 39.9368 382.827 40.4687C382.259 41.0845 381.576 41.5604 380.781 41.8683C379.985 42.1762 379.16 42.3441 378.307 42.3721C377.455 42.4001 376.602 42.3161 375.806 42.1202C374.982 41.9242 374.271 41.6163 373.702 41.1405L365.771 35.2622C365.146 34.7584 364.663 34.0866 364.322 33.2748C363.981 32.4631 363.81 31.6233 363.81 30.7556C363.81 29.8879 363.952 29.0201 364.293 28.1524C364.606 27.2846 365.061 26.5009 365.629 25.8291C366.255 25.1573 366.965 24.6534 367.761 24.2895C368.557 23.9256 369.41 23.7017 370.291 23.6457C371.172 23.5897 372.054 23.6737 372.906 23.8977C373.759 24.1216 374.498 24.4855 375.124 24.9893L382.713 30.6156L382.685 30.6436ZM401.958 8.81018C402.527 13.6807 402.783 18.6072 402.726 23.5897C402.669 28.5722 402.413 33.4708 401.958 38.2853C401.901 39.1811 401.645 40.0208 401.191 40.8046C400.736 41.5883 400.167 42.2601 399.485 42.792C398.803 43.3238 398.007 43.7157 397.097 43.9956C396.188 44.2755 395.221 44.3595 394.198 44.2475C392.037 43.9676 390.389 43.1279 389.252 41.7563C388.115 40.3847 387.603 38.8452 387.717 37.1657C387.944 34.6464 388.115 32.2951 388.2 30.1118C388.285 27.9284 388.313 25.7731 388.313 23.6737C388.313 21.5743 388.257 19.419 388.143 17.2077C388.029 14.9963 387.887 12.5611 387.717 9.92984C387.603 8.30633 388.086 6.79478 389.166 5.42319C390.246 4.0516 391.838 3.21186 393.942 2.93194C396.045 2.65202 397.836 3.09989 399.315 4.27554C400.793 5.45118 401.674 6.93474 401.958 8.7262V8.81018Z" fill="white"/>
<path d="M451.193 31.819C451.875 31.5391 452.642 31.3431 453.495 31.2592C454.348 31.1752 455.201 31.2032 456.053 31.3711C456.906 31.5391 457.674 31.875 458.356 32.3229C459.038 32.7987 459.493 33.5265 459.72 34.4782C460.005 35.5419 460.033 36.4936 459.834 37.3334C459.635 38.1731 459.294 38.9009 458.839 39.4887C458.384 40.0765 457.873 40.5524 457.304 40.9163C456.736 41.2802 456.224 41.5881 455.769 41.812C453.381 42.9317 450.596 43.6874 447.44 44.0513C444.285 44.4152 441.016 44.5832 437.662 44.5832C436.127 44.5832 434.563 44.5272 432.971 44.4152C431.379 44.3033 429.844 44.1353 428.366 43.9114C426.888 43.6874 425.524 43.4355 424.273 43.1556C423.022 42.8757 421.97 42.5678 421.117 42.2319C420.549 41.952 419.924 41.5881 419.27 41.1682C418.616 40.7483 417.962 40.2445 417.365 39.6846C416.74 39.1248 416.171 38.453 415.688 37.6972C415.205 36.9415 414.864 36.1017 414.722 35.122C414.324 32.7147 414.153 30.6154 414.21 28.8519C414.267 27.0884 414.437 25.297 414.722 23.5055C414.835 22.6658 415.12 21.91 415.574 21.1822C416.029 20.4824 416.569 19.8946 417.195 19.3627C417.82 18.8589 418.502 18.495 419.213 18.2151C419.924 17.9632 420.577 17.8512 421.146 17.8512H452.898C454.206 17.8512 455.456 18.3271 456.622 19.2788C457.787 20.2305 458.384 21.5461 458.384 23.2256C458.384 24.6252 457.873 25.8848 456.878 27.0044C455.883 28.1241 454.547 28.6839 452.898 28.6839H429.788C428.992 28.6839 428.508 28.8519 428.366 29.1878C428.224 29.5237 428.139 29.7756 428.139 29.9436V31.0352C428.139 31.875 428.622 32.4348 429.589 32.7147C430.726 32.9947 432.033 33.1626 433.483 33.2186C434.933 33.2746 436.496 33.3026 438.145 33.3026C440.703 33.3026 443.205 33.1346 445.649 32.8267C448.094 32.5188 449.942 32.1269 451.193 31.679V31.819ZM420.293 15.024C418.929 15.024 417.735 14.4922 416.74 13.4005C415.745 12.3089 415.233 11.0772 415.233 9.64965C415.233 8.22208 415.717 6.96246 416.683 5.78681C417.649 4.61117 418.843 4.02334 420.265 4.02334H453.211C454.462 4.02334 455.656 4.55518 456.793 5.59087C457.93 6.62656 458.498 7.94217 458.498 9.59367C458.498 10.9933 457.986 12.2529 456.963 13.3725C455.94 14.4922 454.689 15.052 453.211 15.052H420.265L420.293 15.024ZM472.598 48.3061C473.223 48.3061 473.877 48.418 474.559 48.642C475.241 48.8659 475.895 49.2578 476.52 49.8176C477.146 50.3774 477.714 51.1052 478.169 51.973C478.624 52.8407 478.994 53.9324 479.164 55.22C479.335 56.5636 479.448 58.0191 479.505 59.5867C479.562 61.1542 479.59 62.7497 479.562 64.3452C479.534 65.9408 479.448 67.5083 479.306 69.0478C479.164 70.5874 478.965 72.0149 478.738 73.3026C478.624 73.9744 478.368 74.6741 477.913 75.3739C477.487 76.0737 476.918 76.6895 476.208 77.2214C475.497 77.7532 474.673 78.1451 473.735 78.397C472.797 78.649 471.716 78.649 470.522 78.425C469.329 78.2011 468.362 77.8372 467.623 77.3334C466.884 76.8295 466.315 76.2417 465.861 75.5699C465.406 74.8981 465.15 74.1703 465.036 73.4425C464.922 72.6867 464.894 71.903 464.951 71.1192C465.065 69.8316 465.178 68.516 465.349 67.1724C465.491 65.8288 465.548 64.7651 465.548 63.9814C465.548 62.8617 465.264 62.1619 464.695 61.91C464.127 61.6581 463.331 61.5181 462.307 61.5181H425.097C423.619 61.5181 422.368 60.8743 421.373 59.5867C420.378 58.2991 419.867 56.7875 419.867 55.052C419.867 53.3166 420.35 51.749 421.288 50.3774C422.226 49.0058 423.42 48.3061 424.927 48.3061H472.541H472.598ZM478.397 8.80991C478.51 10.2095 478.624 11.6371 478.738 13.0646C478.851 14.4922 478.937 15.9758 478.994 17.4873H483.428C484.224 17.4873 484.963 17.6553 485.617 18.0471C486.271 18.411 486.868 18.8869 487.379 19.5027C487.891 20.1185 488.289 20.8183 488.573 21.6021C488.857 22.3858 489 23.1976 489 24.0373C489 24.7651 488.886 25.5209 488.715 26.3047C488.516 27.0884 488.204 27.8162 487.777 28.488C487.351 29.1598 486.811 29.7196 486.157 30.1115C485.503 30.5314 484.736 30.7553 483.883 30.7553H479.022C478.965 32.3788 478.88 33.9744 478.766 35.5139C478.652 37.0534 478.539 38.537 478.425 40.0205C478.368 40.9163 478.112 41.756 477.657 42.5398C477.203 43.3236 476.634 43.9954 475.952 44.5272C475.27 45.059 474.474 45.4789 473.564 45.7588C472.654 46.0387 471.688 46.1227 470.665 46.0107C468.504 45.7308 466.855 44.9191 465.718 43.5475C464.581 42.1759 464.07 40.6364 464.183 38.9569C464.411 36.4376 464.553 34.0023 464.667 31.6511C464.752 29.2998 464.78 26.9485 464.78 24.6252C464.78 22.3019 464.724 19.9506 464.61 17.5713C464.496 15.192 464.354 12.6727 464.183 10.0415C464.07 8.41802 464.553 6.90648 465.633 5.53489C466.713 4.1633 468.305 3.32355 470.409 3.04364C472.512 2.76372 474.303 3.21159 475.781 4.38723C477.259 5.56288 478.141 7.04644 478.425 8.8379L478.397 8.80991Z" fill="white"/>
<path d="M28.2647 18.1872C26.7297 17.4594 27.3551 10.2095 28.7764 9.73369C30.1977 9.25783 35.5134 12.9247 35.2576 14.3803C35.0018 15.8359 29.7997 18.9429 28.2647 18.1872Z" fill="white"/>
<path d="M40.1765 40.9995C42.8925 40.9995 45.0943 38.8315 45.0943 36.157C45.0943 33.4825 42.8925 31.3145 40.1765 31.3145C37.4605 31.3145 35.2588 33.4825 35.2588 36.157C35.2588 38.8315 37.4605 40.9995 40.1765 40.9995Z" fill="white"/>
<path d="M110.815 37.1929C113.531 37.1929 115.733 35.0248 115.733 32.3504C115.733 29.6759 113.531 27.5078 110.815 27.5078C108.099 27.5078 105.897 29.6759 105.897 32.3504C105.897 35.0248 108.099 37.1929 110.815 37.1929Z" fill="white"/>
<path d="M138.987 37.109C143.563 50.349 150.045 62.6653 155.36 75.6254C154.905 75.9333 154.507 76.2132 153.882 76.6331C153.427 76.0173 153.001 75.5414 152.745 74.9816C148.623 65.7444 144.501 56.4791 140.465 47.2139C139.299 44.5547 138.39 41.7556 137.366 39.0404C137.196 38.5925 137.025 38.1726 136.826 37.6968C136.286 37.6968 135.803 37.6968 135.348 37.6968C130.857 37.6968 127.275 35.8773 124.83 32.1544C122.613 28.7954 121.732 24.9606 121.05 21.0698C120.709 19.0264 120.595 16.927 120.396 14.8556C120.311 13.764 120.339 13.736 121.107 12.6443C121.476 12.7563 121.902 12.8962 122.329 13.0362C122.727 16.1712 123.068 19.1663 123.523 22.1614C124.006 25.2965 124.83 28.3196 126.678 31.0068C130.487 36.5771 138.304 37.025 142.682 31.9305C145.326 28.8794 145.184 24.9606 142.597 21.8815C139.584 18.3266 136.741 14.6317 133.813 10.9928C131.539 8.19363 128.838 5.98229 125.257 5.00259C116.018 2.45535 104.506 7.46585 101.066 16.3392C100.668 17.3469 100.213 18.2986 99.7583 19.2783C97.9106 23.1691 94.7269 25.2405 90.4629 25.8003C90.0081 25.8563 89.5249 25.9403 88.9848 26.0243C88.7289 28.5715 87.535 30.335 84.8061 30.8388C85.2609 34.5897 86.4832 37.7248 89.7807 39.8241C92.3106 41.4477 95.0964 42.3434 98.0812 42.6513C100.242 42.8752 102.402 43.0712 104.562 43.3231C105.216 43.4071 105.87 43.547 106.524 43.687C109.878 44.3868 112.124 46.3182 113.346 49.4533C114.767 53.0922 115.677 56.843 115.876 60.7059C116.16 66.3042 116.018 71.8745 115.165 77.4169C114.995 78.4246 115.137 79.6002 113.943 80.384C113.517 80.216 113.033 80.0481 112.465 79.8241C112.607 78.9004 112.749 78.0887 112.863 77.2769C113.943 70.195 114.426 63.0852 113.033 56.0033C112.607 53.8199 111.697 51.6926 110.958 49.5652C110.333 47.8018 108.997 46.6821 107.234 46.1782C105.785 45.7864 104.307 45.5904 102.8 45.3945C99.9858 45.0026 97.1431 44.8906 94.3858 44.2468C89.4112 43.0992 85.7442 40.272 83.669 35.5134C82.5604 32.9382 82.3899 30.335 82.7025 27.6478C82.9584 25.4365 84.1807 24.3168 86.4832 23.9529C87.9614 23.729 89.4964 23.673 90.9746 23.4211C94.2436 22.8892 96.603 21.1817 97.8538 18.0467C98.3939 16.6751 99.0761 15.3315 99.7583 14.0159C103.454 6.962 109.622 3.51903 117.297 2.25941C119.657 1.86753 121.988 2.03548 124.319 2.45535C128.952 3.32309 132.534 5.75836 135.377 9.36928C138.503 13.3161 141.63 17.2349 144.7 21.2097C148.424 26.0803 147.202 32.2104 141.943 35.5134C141.09 36.0453 140.152 36.4931 139.015 37.109H138.987Z" fill="white"/>
<path d="M3.96142 76.5776C3.33604 76.4656 2.76751 76.3537 2 76.2137C2.25584 75.29 2.36954 74.5342 2.65381 73.8624C4.92791 68.46 7.8274 63.3936 11.5797 58.8309C13.2284 56.8435 14.8487 54.8561 16.3553 52.7847C17.5776 51.1052 18.6863 49.3138 19.7096 47.4943C21.1309 44.9471 21.472 42.2039 20.5908 39.3768C19.2832 35.262 19.5391 31.1472 20.733 27.0884C21.0741 25.9688 21.5005 24.8211 22.1258 23.8134C22.7797 22.7218 22.9786 21.6581 22.8365 20.4265C22.268 15.5839 22.7228 10.8253 23.9451 6.12274C24.2578 4.97509 24.6274 3.82743 25.1106 2.76375C25.8781 1.08426 27.1005 0.636391 28.806 1.39216C29.5735 1.72806 30.3411 2.14794 30.9664 2.67978C33.1268 4.47124 35.2588 6.31869 37.3624 8.19412C37.9877 8.75395 38.4426 9.45374 38.8974 9.98559C40.4893 9.81764 41.74 9.62169 42.9908 9.53772C44.1847 9.48174 45.3786 9.53772 46.9705 9.53772C47.141 9.34178 47.5106 8.80994 47.9654 8.36207C49.6141 6.62659 51.2344 4.89111 52.94 3.18363C53.3664 2.76375 53.8781 2.42785 54.4182 2.17593C56.1522 1.33618 57.4314 1.81204 57.8577 3.68748C58.3979 6.06676 58.6821 8.47404 58.9664 10.8813C59.1085 12.057 58.9664 13.2606 58.9664 14.6042C61.0131 16.2837 62.1786 18.635 63.2019 21.0423C64.0831 23.1136 65.7603 23.9534 67.8638 24.1493C68.0344 24.1493 68.2334 24.1493 68.4039 24.1493C70.9054 24.3453 72.2131 25.353 72.6395 27.7882C73.5775 33.2746 72.2131 38.0612 67.8354 41.784C66.6131 42.8197 65.1917 43.6595 63.742 44.3593C61.4963 45.4789 59.1654 46.5146 56.806 47.4383C50.7512 49.8176 47.5106 54.4642 46.0324 60.4264C44.5827 66.3047 44.4121 72.2949 45.4639 78.3131C45.5776 79.0129 45.606 79.7127 45.6629 80.3845C44.3552 81.4481 43.5025 81.2522 43.2182 79.7686C43.0192 78.7329 42.9624 77.6413 42.8771 76.5776C42.3654 70.5594 42.4791 64.5692 44.2415 58.719C45.5207 54.4642 47.5106 50.6294 51.2913 47.9982C52.7694 46.9905 54.3897 46.1787 56.01 45.367C58.8811 43.9674 61.809 42.7358 64.6516 41.2802C66.4994 40.3285 68.006 38.9569 69.0009 37.1094C69.2283 36.6896 69.3988 36.2697 69.7115 35.5699C67.4943 36.2977 65.5044 36.5776 63.8273 34.9261C63.0882 34.1983 63.0029 33.8624 63.1451 32.4069C63.4862 32.3509 63.8841 32.2669 64.2821 32.2109C64.7085 32.7148 65.1065 33.1346 65.476 33.5545C68.2334 34.5062 69.9105 33.3866 70.4506 30.0836C68.7166 29.4118 67.1816 28.4041 66.9258 26.2767C66.6415 26.1367 66.3857 25.9688 66.1014 25.9128C63.7136 25.409 62.1786 23.8974 61.1836 21.798C61.0131 21.4341 60.7857 21.0703 60.6435 20.6784C59.2222 17.0675 56.4649 14.8001 52.8831 13.4006C48.676 11.777 44.3837 11.2732 39.9207 12.1689C39.4091 12.2809 38.869 12.3089 38.2152 12.3929C35.1167 8.89391 31.8761 5.53492 27.4416 3.23961C27.072 3.99538 26.6741 4.63919 26.4182 5.33898C24.6558 10.4055 24.5137 15.5839 25.1106 20.8463C25.1675 21.3782 25.2527 21.91 25.338 22.4698C23.7177 24.6812 22.6659 27.1164 22.2396 29.8036C21.7847 32.5468 21.5573 35.29 22.467 37.9212C24.1725 42.9037 22.8365 47.3264 20.0507 51.4411C18.2883 54.0724 16.1847 56.4796 14.337 59.0269C12.1198 62.0779 9.90252 65.101 7.88425 68.2921C6.66192 70.2515 5.86598 72.4628 4.89949 74.5622C4.61522 75.206 4.30253 75.8498 3.96142 76.6336V76.5776ZM55.7542 4.19132C53.5654 4.9471 50.5238 7.99818 49.8415 9.95759C51.0354 10.3495 52.2578 10.6854 53.3948 11.1612C54.5319 11.6371 55.5836 12.2529 56.9197 12.9247C56.8344 9.84563 56.5786 7.04647 55.7542 4.19132Z" fill="white"/>
<path d="M77.7559 4.05129C79.0635 3.60342 80.0584 3.12756 81.1102 2.93162C83.896 2.42777 86.3691 4.27522 86.5965 7.04639C86.6818 8.08208 86.4828 9.17375 86.1417 10.1814C85.5731 11.9169 84.4361 13.3445 83.0148 14.4642C81.4513 15.6678 79.831 16.8155 78.1539 18.0191C75.226 16.2276 72.5539 14.4362 70.564 11.833C69.2564 10.1255 69.1427 8.16605 69.6828 6.20664C70.4788 3.32351 73.8046 1.95192 76.5051 3.32351C76.9884 3.57543 77.4432 3.85535 77.7559 4.05129ZM77.9549 15.2479C80.3143 14.0723 82.1051 12.6447 83.3843 11.0212C84.2655 9.90153 84.7772 8.64191 84.5782 7.21434C84.3792 5.64681 83.0432 4.63911 81.4797 5.003C80.7407 5.17095 80.0584 5.59083 79.4046 6.0107C78.9214 6.31861 78.495 6.73848 77.9833 7.13036C77.3295 6.57053 76.8463 6.06668 76.2777 5.64681C75.0554 4.75108 73.7762 4.6671 72.7529 5.3389C71.6442 6.09467 71.1326 7.60622 71.559 8.97781C72.0138 10.3774 72.8381 11.553 74.0036 12.4488C75.2828 13.4285 76.6188 14.3242 77.9549 15.2479Z" fill="white"/>
<path d="M105.926 21.4902C107.376 21.5182 108.428 22.6939 108.4 24.2054C108.4 25.689 107.263 26.7527 105.728 26.7247C104.335 26.6967 103.283 25.465 103.368 23.9255C103.453 22.4419 104.448 21.4622 105.898 21.5182L105.926 21.4902Z" fill="white"/>
<path d="M55.6404 26.7526C55.6119 28.1242 54.5033 29.1599 53.0251 29.1599C51.5754 29.1599 50.6089 28.1242 50.6373 26.6127C50.6373 25.1011 51.6607 24.0654 53.082 24.0654C54.5033 24.0654 55.6688 25.3251 55.6404 26.7526Z" fill="white"/>
</g>
<defs>
<clipPath id="clip0_224_857">
<rect width="487" height="80" fill="white" transform="translate(2 1)"/>
</clipPath>
</defs>
</svg>
