<svg width="120" height="100" viewBox="0 0 120 100" fill="none" xmlns="http://www.w3.org/2000/svg">
<g clip-path="url(#clip0_446_164)">
<path d="M29.0982 21.6232C28.1537 21.1648 28.5438 16.7036 29.4165 16.3981C30.2892 16.0925 33.5436 18.374 33.3896 19.2704C33.2356 20.1667 30.0428 22.0815 29.0982 21.6334V21.6232Z" fill="#F5BB91"/>
<path d="M36.4085 35.6994C38.0698 35.6994 39.4166 34.3632 39.4166 32.715C39.4166 31.0668 38.0698 29.7307 36.4085 29.7307C34.7472 29.7307 33.4004 31.0668 33.4004 32.715C33.4004 34.3632 34.7472 35.6994 36.4085 35.6994Z" fill="#F5BB91"/>
<path d="M79.6917 33.3468C81.353 33.3468 82.6998 32.0107 82.6998 30.3625C82.6998 28.7143 81.353 27.3782 79.6917 27.3782C78.0304 27.3782 76.6836 28.7143 76.6836 30.3625C76.6836 32.0107 78.0304 33.3468 79.6917 33.3468Z" fill="#F5BB91"/>
<path d="M31.3869 74.2923C31.1816 74.3942 30.9147 74.4858 30.5656 74.5673C30.2165 74.6488 29.8572 74.7201 29.4568 74.7812C29.0564 74.8423 28.6458 74.8933 28.2043 74.9442C27.7731 74.9951 27.3419 75.0359 26.9107 75.0664V75.8507C28.1735 75.8303 29.3541 75.7998 30.4732 75.7488C31.5922 75.6979 32.5265 75.6266 33.2965 75.5451C33.5326 75.5248 33.7893 75.5451 34.0459 75.5655C34.3129 75.5961 34.549 75.6775 34.7749 75.81C35.0007 75.9424 35.1855 76.1155 35.3395 76.3396C35.4935 76.5637 35.5756 76.8591 35.5962 77.2155C35.6167 77.5415 35.5756 77.8165 35.473 78.0609C35.3703 78.3054 35.2266 78.5091 35.052 78.6822C34.8775 78.8554 34.6722 78.9878 34.4566 79.0897C34.2307 79.1915 34.0151 79.2628 33.7893 79.2934C33.2759 79.3647 32.5676 79.4156 31.6436 79.4563C30.7299 79.4971 29.6929 79.5378 28.5534 79.5582C27.4138 79.5786 26.2126 79.5989 24.9601 79.6091C23.6973 79.6091 22.4859 79.6091 21.3257 79.5989C20.1554 79.5786 19.0877 79.548 18.1123 79.4971C17.137 79.4462 16.3568 79.3749 15.7818 79.2934C15.5457 79.2628 15.3096 79.1915 15.0837 79.0897C14.8579 78.9878 14.6525 78.8554 14.4677 78.6822C14.2932 78.5091 14.1495 78.3054 14.0571 78.0507C13.9647 77.7961 13.9339 77.4906 13.9647 77.1442C13.9955 76.8387 14.0879 76.584 14.2419 76.36C14.3959 76.1461 14.5909 75.9627 14.8168 75.8405C15.0427 75.7183 15.2891 75.6266 15.5457 75.5859C15.8024 75.5451 16.0385 75.5349 16.2644 75.5451C17.0446 75.6266 17.9891 75.6877 19.0979 75.7387C20.2067 75.7794 21.3873 75.8201 22.6399 75.8507V75.046C22.2189 75.0155 21.7775 74.9646 21.336 74.9238C20.8946 74.8729 20.4736 74.822 20.0732 74.7609C19.6728 74.6997 19.3238 74.6386 19.0158 74.5571C18.7078 74.4858 18.4614 74.4044 18.2766 74.3127C17.9173 74.1395 17.5374 73.8951 17.1268 73.5692C16.7161 73.2432 16.4594 72.8053 16.3568 72.2654C16.2849 71.9089 16.2438 71.5423 16.213 71.1552C16.1925 70.7682 16.172 70.3811 16.172 70.0043C16.172 69.6274 16.1822 69.2607 16.213 68.9042C16.2336 68.5477 16.2746 68.2422 16.326 67.9672C16.3773 67.7024 16.4697 67.4477 16.6237 67.2033C16.7674 66.969 16.942 66.7653 17.137 66.5921C17.3321 66.419 17.5374 66.2968 17.753 66.2051C17.9686 66.1134 18.1534 66.0625 18.3279 66.0625H31.161C31.3356 66.0625 31.5306 66.1134 31.7462 66.2051C31.9618 66.2968 32.1877 66.4292 32.393 66.6125C32.6086 66.7857 32.7832 66.9996 32.9372 67.2338C33.0911 67.4681 33.1938 67.7329 33.2451 68.0181C33.3273 68.6394 33.3786 69.3422 33.3889 70.1163C33.3889 70.8904 33.3375 71.5932 33.2246 72.2145C33.1733 72.5201 33.0706 72.7849 32.9269 72.9988C32.7832 73.2229 32.6189 73.4062 32.4444 73.5692C32.2698 73.7321 32.085 73.8645 31.9002 73.9868C31.7154 74.109 31.5409 74.2007 31.3869 74.2923ZM34.1178 84.6407C34.1178 85.5676 33.8509 86.3111 33.3273 86.8815C32.8037 87.4519 32.0953 87.8899 31.2226 88.1954C30.35 88.5112 29.3439 88.7149 28.2248 88.8269C27.1058 88.939 25.9559 88.9899 24.7856 88.9899C23.6152 88.9899 22.4653 88.939 21.3463 88.8269C20.2272 88.7149 19.2211 88.5112 18.3485 88.1954C17.4758 87.8797 16.7674 87.4417 16.2438 86.8815C15.7202 86.3213 15.4533 85.5676 15.4533 84.6407C15.4533 83.7138 15.7202 82.9907 16.2438 82.4101C16.7674 81.8397 17.4758 81.3916 18.3485 81.086C19.2211 80.7703 20.2272 80.5666 21.3463 80.4545C22.4653 80.3425 23.6152 80.2915 24.7856 80.2915C25.9559 80.2915 27.1058 80.3425 28.2248 80.4545C29.3439 80.5666 30.35 80.7703 31.2226 81.086C32.0953 81.4018 32.8037 81.8397 33.3273 82.4101C33.8509 82.9805 34.1178 83.724 34.1178 84.6407ZM29.8264 84.6713C29.8264 84.3352 29.4157 84.1213 28.6047 84.0296C27.7936 83.9379 26.5001 83.887 24.7548 83.887C23.0095 83.887 21.7261 83.9379 20.9254 84.0398C20.1246 84.1416 19.7242 84.3555 19.7242 84.6713C19.7242 84.9565 20.1246 85.1602 20.9254 85.262C21.7261 85.3741 22.9992 85.425 24.7548 85.425C26.5103 85.425 27.7936 85.3741 28.6047 85.2722C29.426 85.1704 29.8264 84.9667 29.8264 84.6611V84.6713ZM29.1899 69.8922C29.1899 69.8209 29.1693 69.7394 29.1283 69.6376C29.0872 69.5357 28.9332 69.4848 28.6766 69.4848H20.8022C20.5763 69.4848 20.4531 69.5357 20.4018 69.6478C20.3607 69.7598 20.3402 69.8515 20.3402 69.9126V70.5746C20.3607 70.9108 20.5147 71.1043 20.8022 71.1552C21.2641 71.2367 21.8596 71.308 22.5885 71.3691C23.3174 71.4302 24.0874 71.4608 24.8882 71.4608C25.6377 71.4608 26.3358 71.4302 26.9929 71.3691C27.6499 71.308 28.1838 71.2571 28.615 71.2061C28.9846 71.1348 29.1899 70.9311 29.2001 70.5746V69.8922H29.1899Z" fill="#E49257"/>
<path d="M38.7379 76.5944C38.5018 76.5639 38.2656 76.5027 38.0398 76.4213C37.8139 76.3398 37.6086 76.2175 37.4238 76.0648C37.2493 75.912 37.1055 75.7185 37.0131 75.4842C36.9207 75.2499 36.8899 74.9647 36.9207 74.6286C36.9515 74.3434 37.0439 74.1092 37.1979 73.9156C37.3519 73.7323 37.547 73.5795 37.7728 73.4777C37.9987 73.3656 38.2451 73.2943 38.5018 73.2536C38.7584 73.2128 38.9946 73.2027 39.2204 73.2128C39.8877 73.2841 40.6783 73.3351 41.592 73.3758C42.5057 73.4166 43.4913 73.4573 44.5385 73.4777C45.5856 73.5082 46.6636 73.5184 47.7621 73.5286C48.8709 73.5286 49.9386 73.5286 50.9858 73.5184C52.033 73.498 53.0083 73.4675 53.922 73.4166C54.8358 73.3656 55.6057 73.2943 56.2525 73.2128C56.4887 73.1925 56.7453 73.2128 57.002 73.2332C57.2689 73.2638 57.505 73.3351 57.7309 73.4471C57.9465 73.5592 58.1416 73.7119 58.2956 73.9055C58.4496 74.099 58.5317 74.3638 58.5522 74.6999C58.5728 75.0055 58.5317 75.2703 58.429 75.4944C58.3264 75.7185 58.1826 75.912 58.0081 76.0648C57.8336 76.2175 57.6282 76.3296 57.4126 76.4213C57.197 76.5027 56.9712 76.5639 56.7453 76.5944C56.232 76.6453 55.5236 76.6963 54.5996 76.7472C53.6756 76.7981 52.649 76.8287 51.5094 76.849C50.3698 76.8694 49.1687 76.8796 47.9161 76.8898C46.6534 76.8898 45.4419 76.8898 44.2818 76.8592C43.1114 76.8389 42.0437 76.7981 41.0684 76.7574C40.0931 76.7166 39.3128 76.6657 38.7379 76.5944ZM42.8958 85.1502C42.8958 85.3029 42.978 85.3844 43.1525 85.4048C43.4605 85.4557 43.8198 85.4965 44.251 85.527C44.6822 85.5576 45.1237 85.5881 45.6062 85.6187C46.0784 85.6493 46.561 85.6594 47.0435 85.6696C47.526 85.6696 47.988 85.6798 48.4089 85.6798C48.9325 85.6798 49.4767 85.6696 50.0413 85.6391C50.606 85.6085 51.1604 85.578 51.7147 85.527C52.2691 85.4761 52.803 85.415 53.3368 85.3539C53.8604 85.2826 54.343 85.2113 54.7639 85.1298C54.9692 85.0789 55.1848 85.0585 55.4107 85.0585C55.6365 85.0585 55.8624 85.0891 56.078 85.1603C56.2936 85.2316 56.4784 85.3437 56.6427 85.5067C56.8069 85.6696 56.9199 85.8835 56.9917 86.1483C57.0944 86.5659 57.0123 86.9428 56.7453 87.2789C56.4784 87.615 56.1807 87.8289 55.8419 87.9512C55.3285 88.1243 54.7536 88.2567 54.1171 88.3586C53.4806 88.4604 52.8235 88.5419 52.1562 88.603C51.4889 88.6641 50.8113 88.7049 50.144 88.7252C49.4766 88.7456 48.8401 88.766 48.2447 88.766C47.6492 88.766 47.0332 88.766 46.3351 88.7354C45.637 88.7151 44.9491 88.6845 44.251 88.6336C43.5529 88.5827 42.9164 88.5114 42.3209 88.4197C41.7254 88.328 41.2327 88.216 40.8425 88.0836C40.4729 87.9308 40.0725 87.6863 39.6721 87.3502C39.2615 87.0141 39.0048 86.5761 38.8816 86.0363C38.8098 85.7511 38.779 85.4659 38.7687 85.1705C38.7687 84.8853 38.7687 84.6103 38.7687 84.3455C38.7687 84.0807 38.7995 83.8464 38.8303 83.6325C38.8611 83.4186 38.8919 83.2557 38.9022 83.1335C38.9535 82.8483 39.0459 82.6038 39.1794 82.4103C39.3128 82.2168 39.4668 82.0538 39.6311 81.9316C39.7953 81.8093 39.9596 81.7075 40.1444 81.6566C40.3189 81.5955 40.4832 81.5649 40.6167 81.5649H52.4334V81.1066C52.4334 80.9741 52.3513 80.9028 52.2075 80.9028H40.6269C40.2676 80.9028 39.9288 80.7501 39.6208 80.4445C39.3026 80.1389 39.1486 79.7621 39.1486 79.3037C39.1486 78.8963 39.3026 78.5398 39.6003 78.2444C39.898 77.9389 40.2368 77.7861 40.6372 77.7861H54.3635C54.959 77.7861 55.4517 77.9491 55.8316 78.275C56.2115 78.6009 56.4373 79.0084 56.5092 79.4769C56.6119 80.1899 56.6529 80.8315 56.6221 81.4121C56.6016 81.9927 56.54 82.502 56.4579 82.9399C56.3552 83.4594 56.1088 83.877 55.7289 84.1927C55.3491 84.5085 54.959 84.6613 54.5688 84.6613H42.9369V85.14L42.8958 85.1502ZM56.0369 71.8073C56.0061 71.96 55.924 72.1332 55.7905 72.3165C55.6673 72.4999 55.4928 72.6628 55.2978 72.7952C55.0924 72.9277 54.8563 73.0397 54.5688 73.111C54.2916 73.1823 53.9734 73.1925 53.614 73.1212C53.2547 73.0499 52.9673 72.9378 52.7311 72.7749C52.495 72.6119 52.3205 72.4388 52.1767 72.2452C52.033 72.0517 51.9611 71.8582 51.9201 71.6647C51.8893 71.4711 51.8995 71.298 51.9406 71.1452C51.9714 71.0433 52.0022 70.9211 52.033 70.7683C52.0535 70.6156 52.0741 70.4526 52.0946 70.2591V70.0146C52.0946 69.923 52.0638 69.8415 52.0022 69.76C51.9406 69.6785 51.8482 69.6174 51.7353 69.5563C51.6121 69.4952 51.4375 69.4646 51.2014 69.4646H40.7193C40.4832 69.4646 40.2676 69.4137 40.0725 69.3016C39.8775 69.1896 39.703 69.0572 39.5592 68.8942C39.4155 68.7313 39.3026 68.5581 39.2307 68.3544C39.1588 68.1507 39.1178 67.947 39.1178 67.7433C39.1178 67.4886 39.1691 67.2646 39.282 67.0608C39.395 66.8571 39.5284 66.684 39.6927 66.5312C39.8569 66.3784 40.0315 66.2664 40.2163 66.1747C40.4011 66.0932 40.5756 66.0525 40.7296 66.0525H54.0966C54.2814 66.0525 54.4867 66.0932 54.7126 66.1645C54.9282 66.2358 55.1438 66.3581 55.3491 66.5108C55.5544 66.6636 55.7392 66.8571 55.9137 67.1016C56.0883 67.346 56.1909 67.6414 56.2423 67.9775C56.3655 68.6498 56.386 69.322 56.3141 69.9942C56.2423 70.6665 56.1499 71.2674 56.0369 71.8073Z" fill="#E49257"/>
<path d="M62.8948 77.8571C62.6895 77.9386 62.4533 77.9895 62.1761 78.0099C61.899 78.0303 61.632 78.0099 61.3754 77.9386C61.1187 77.8673 60.8723 77.7553 60.6464 77.5923C60.4206 77.4293 60.2563 77.2256 60.1331 76.971C59.9791 76.6349 59.897 76.3191 59.8867 76.0238C59.8867 75.7284 59.9278 75.4636 60.0305 75.2191C60.1331 74.9747 60.2768 74.7608 60.4616 74.5774C60.6464 74.3941 60.8518 74.2515 61.0776 74.1496C61.7039 73.8644 62.2891 73.5385 62.8127 73.1922C63.3363 72.8357 63.788 72.4283 64.1678 71.9496C64.5477 71.4709 64.8352 70.9412 65.0508 70.3301C65.2664 69.719 65.369 69.0264 65.369 68.2319V67.468C65.369 67.1115 65.5538 66.7754 65.9132 66.4393C66.2827 66.1133 66.7755 65.9402 67.4018 65.9402C67.6893 65.9402 67.9665 65.9809 68.2436 66.0522C68.5106 66.1235 68.757 66.2356 68.9623 66.368C69.1676 66.5004 69.3319 66.6634 69.4551 66.8467C69.5783 67.03 69.6502 67.2337 69.6502 67.4578V68.3439C69.6502 69.2708 69.5064 70.2079 69.219 71.1449C68.9315 72.082 68.5003 72.9681 67.9254 73.8033C67.3607 74.6385 66.6523 75.4024 65.8105 76.1052C64.9686 76.808 63.9933 77.3886 62.8845 77.8673L62.8948 77.8571ZM78.3356 79.1507C78.5204 79.1507 78.7155 79.1812 78.9208 79.2525C79.1261 79.3238 79.3212 79.4359 79.506 79.609C79.6908 79.7822 79.855 79.9961 79.9988 80.2507C80.1425 80.5053 80.2452 80.8415 80.2965 81.2285C80.3478 81.6359 80.3786 82.0943 80.3992 82.6239C80.4197 83.1434 80.4197 83.6832 80.4094 84.2332C80.4094 84.7832 80.3786 85.3129 80.3376 85.8323C80.2965 86.3416 80.2349 86.7999 80.1733 87.187C80.1425 87.3907 80.0604 87.5944 79.9269 87.8083C79.8037 88.0222 79.6292 88.2055 79.4136 88.3685C79.198 88.5315 78.9516 88.6435 78.6744 88.725C78.3972 88.7963 78.0789 88.8065 77.7196 88.7352C77.3603 88.6639 77.0728 88.5518 76.8367 88.399C76.6108 88.2361 76.426 88.0527 76.3028 87.8287C76.1796 87.6148 76.0975 87.3907 76.0564 87.1564C76.0256 86.9323 76.0256 86.7185 76.0564 86.5351C76.1078 86.1481 76.1488 85.7407 76.1796 85.3231C76.2104 84.9055 76.231 84.4166 76.231 83.8767C76.231 83.5406 76.1488 83.3369 75.9743 83.2554C75.7998 83.1739 75.5637 83.1434 75.2557 83.1434H64.1268C63.634 83.1434 63.2541 82.9499 62.9769 82.5628C62.71 82.1758 62.5663 81.7174 62.5663 81.198C62.5663 80.6785 62.6895 80.21 62.9461 79.7924C63.2028 79.3748 63.5724 79.1711 64.0652 79.1711H78.3048L78.3356 79.1507ZM74.6089 74.3432C74.8655 74.5265 75.0401 74.7608 75.1427 75.0256C75.2454 75.3006 75.2865 75.5654 75.2659 75.8506C75.2454 76.1256 75.1838 76.4006 75.0709 76.6654C74.9579 76.9303 74.8142 77.1442 74.6499 77.3071C74.4754 77.4905 74.2803 77.6331 74.0339 77.7247C73.7978 77.8164 73.5514 77.8673 73.2948 77.8775C73.0381 77.8775 72.7917 77.8571 72.5453 77.8062C72.2989 77.7451 72.0936 77.6534 71.919 77.5108L69.5475 75.7386C69.3627 75.5858 69.219 75.3923 69.1163 75.1478C69.0136 74.9034 68.9623 74.6487 68.9623 74.3839C68.9623 74.1191 69.0136 73.8644 69.106 73.5996C69.1984 73.3348 69.3319 73.1107 69.5064 72.907C69.6912 72.7033 69.9068 72.5505 70.1429 72.4385C70.3791 72.3264 70.6357 72.2653 70.8924 72.245C71.1491 72.2246 71.416 72.245 71.6727 72.3163C71.9293 72.3876 72.1449 72.4894 72.34 72.6422L74.6089 74.3432ZM80.3786 67.7634C80.5532 69.2301 80.625 70.7171 80.6045 72.2144C80.584 73.7219 80.5121 75.1885 80.3786 76.6451C80.3581 76.9099 80.2862 77.1645 80.1528 77.409C80.0193 77.6432 79.8448 77.8469 79.6395 77.9997C79.4341 78.1627 79.198 78.2849 78.9208 78.3664C78.6436 78.4479 78.3561 78.4784 78.0584 78.4479C77.4116 78.3664 76.9188 78.1118 76.58 77.7044C76.2412 77.2867 76.0872 76.8284 76.118 76.3293C76.1899 75.5654 76.231 74.8626 76.2618 74.2006C76.2926 73.5385 76.3028 72.8968 76.3028 72.2653C76.3028 71.6338 76.2823 70.982 76.2515 70.3199C76.2207 69.6579 76.1694 68.9245 76.1283 68.1301C76.0975 67.6412 76.2412 67.193 76.5595 66.7754C76.8778 66.3578 77.3603 66.1133 77.9865 66.0319C78.6128 65.9504 79.1467 66.0828 79.5984 66.4393C80.0501 66.7958 80.3068 67.2439 80.3889 67.7837L80.3786 67.7634Z" fill="#E49257"/>
<path d="M95.0902 74.6892C95.2955 74.6077 95.5214 74.5466 95.7781 74.5263C96.0347 74.4957 96.2914 74.5161 96.5481 74.567C96.8047 74.6179 97.0306 74.7198 97.2359 74.8624C97.4412 75.005 97.5747 75.2189 97.6466 75.5041C97.7287 75.8198 97.739 76.1152 97.6876 76.3596C97.626 76.6143 97.5336 76.8282 97.3899 77.0013C97.2462 77.1745 97.1024 77.3171 96.9279 77.4291C96.7534 77.5412 96.6097 77.6328 96.4659 77.6939C95.7473 78.0301 94.9259 78.2541 93.9814 78.3662C93.0369 78.4782 92.0616 78.5291 91.0555 78.5291C90.5935 78.5291 90.1315 78.5088 89.649 78.4782C89.1664 78.4477 88.7147 78.3967 88.2733 78.3254C87.8318 78.2541 87.4211 78.1828 87.0515 78.1013C86.682 78.0199 86.3637 77.9282 86.107 77.8263C85.9325 77.7449 85.758 77.6328 85.5629 77.5106C85.3678 77.3884 85.1728 77.2356 84.988 77.0624C84.8032 76.8893 84.6389 76.6958 84.4952 76.4717C84.3515 76.2476 84.2488 75.9828 84.1975 75.6976C84.0743 74.9744 84.0229 74.3429 84.0435 73.8133C84.064 73.2836 84.1153 72.7438 84.1975 72.204C84.2283 71.9494 84.3207 71.7151 84.4541 71.5114C84.5876 71.3077 84.7519 71.1141 84.9367 70.9614C85.1214 70.8086 85.3268 70.6965 85.5321 70.6252C85.7374 70.554 85.9325 70.5132 86.107 70.5132H95.6035C95.9937 70.5132 96.3633 70.6558 96.7123 70.941C97.0614 71.2262 97.2359 71.6234 97.2359 72.1327C97.2359 72.5503 97.0819 72.9373 96.7842 73.2735C96.4865 73.6096 96.0963 73.7827 95.5933 73.7827H88.6839C88.4478 73.7827 88.3041 73.8337 88.263 73.9355C88.2219 74.0374 88.2014 74.1087 88.2014 74.1596V74.4855C88.2014 74.7402 88.3451 74.9031 88.6326 74.9948C88.9714 75.0763 89.3615 75.1272 89.7927 75.1476C90.2239 75.1679 90.6859 75.1781 91.1787 75.1781C91.9487 75.1781 92.6878 75.1272 93.427 75.0355C94.156 74.9439 94.7104 74.8318 95.0902 74.6892ZM85.8504 69.6271C85.4397 69.6271 85.0906 69.4641 84.7929 69.1382C84.4952 68.8122 84.3515 68.4354 84.3515 68.0076C84.3515 67.5798 84.4952 67.2029 84.7827 66.8465C85.0701 66.49 85.4294 66.3168 85.8504 66.3168H95.6959C96.0655 66.3168 96.4249 66.4696 96.7636 66.7853C97.1024 67.1011 97.277 67.4983 97.277 67.9872C97.277 68.4048 97.123 68.7919 96.815 69.128C96.507 69.4641 96.1374 69.6373 95.6959 69.6373H85.8504V69.6271ZM101.486 79.6495C101.671 79.6495 101.866 79.6801 102.071 79.7514C102.277 79.8227 102.472 79.9347 102.657 80.1079C102.841 80.281 103.006 80.4949 103.149 80.7496C103.293 81.0042 103.396 81.3403 103.447 81.7274C103.498 82.1348 103.529 82.5728 103.55 83.0413C103.57 83.5098 103.57 83.9885 103.56 84.4672C103.56 84.946 103.529 85.4247 103.478 85.883C103.437 86.3515 103.375 86.7691 103.314 87.1562C103.283 87.3599 103.201 87.5636 103.067 87.7775C102.944 87.9914 102.77 88.1747 102.554 88.3377C102.338 88.5007 102.092 88.6127 101.815 88.6942C101.538 88.7655 101.219 88.7757 100.86 88.7044C100.501 88.6331 100.213 88.5312 99.9976 88.3785C99.7717 88.2257 99.5972 88.0525 99.474 87.8488C99.3508 87.6451 99.2687 87.4312 99.2276 87.2071C99.1865 86.983 99.1865 86.7488 99.2071 86.5145C99.2379 86.1275 99.2789 85.7302 99.32 85.3228C99.3611 84.9154 99.3816 84.5997 99.3816 84.3654C99.3816 84.0293 99.2995 83.8256 99.1249 83.7441C98.9504 83.6728 98.7143 83.632 98.4063 83.632H87.2877C86.8462 83.632 86.4766 83.4385 86.1789 83.0515C85.8812 82.6644 85.7272 82.2061 85.7272 81.6866C85.7272 81.1672 85.8709 80.6986 86.1481 80.281C86.4253 79.8634 86.7846 79.6597 87.2363 79.6597H101.476L101.486 79.6495ZM103.221 67.753C103.252 68.1706 103.293 68.5983 103.324 69.0261C103.355 69.4539 103.386 69.9021 103.396 70.3502H104.72C104.956 70.3502 105.172 70.4012 105.367 70.5132C105.562 70.6252 105.737 70.7678 105.891 70.9512C106.045 71.1345 106.157 71.3484 106.25 71.5827C106.332 71.8169 106.373 72.0614 106.373 72.316C106.373 72.5299 106.342 72.7642 106.281 72.9985C106.219 73.2327 106.127 73.4568 106.003 73.6605C105.88 73.8642 105.716 74.0272 105.521 74.1596C105.326 74.2818 105.1 74.3531 104.843 74.3531H103.386C103.365 74.842 103.344 75.3207 103.314 75.7791C103.283 76.2476 103.242 76.6958 103.211 77.1337C103.19 77.3986 103.119 77.6532 102.985 77.8976C102.852 78.1319 102.677 78.3356 102.472 78.4884C102.266 78.6514 102.03 78.7736 101.753 78.8551C101.476 78.9366 101.189 78.9671 100.881 78.9366C100.234 78.8551 99.7409 78.6004 99.4021 78.193C99.0633 77.7856 98.9093 77.3171 98.9401 76.818C99.012 76.0541 99.0531 75.3207 99.0839 74.6179C99.1147 73.905 99.1249 73.2022 99.1249 72.4994C99.1249 71.7966 99.1044 71.0938 99.0736 70.3706C99.0428 69.6576 99.0017 68.9039 98.9504 68.1094C98.9196 67.6205 99.0633 67.1724 99.3816 66.7548C99.6999 66.3372 100.182 66.0927 100.809 66.0112C101.435 65.9298 101.969 66.0622 102.42 66.4187C102.872 66.7752 103.129 67.2233 103.211 67.7631L103.221 67.753Z" fill="#E49257"/>
<path d="M96.9487 33.2959C99.7412 41.4748 103.725 49.0833 106.989 57.0789C106.712 57.2724 106.455 57.4456 106.086 57.7002C105.819 57.3131 105.542 57.028 105.388 56.6817C102.862 50.9676 100.337 45.2638 97.8624 39.5294C97.1541 37.8794 96.5997 36.158 95.9631 34.4774C95.8605 34.2126 95.7476 33.9478 95.6244 33.6524C95.2958 33.6524 95.0084 33.6524 94.7106 33.6524C91.9489 33.6524 89.7622 32.532 88.2633 30.2199C86.9081 28.1421 86.3537 25.7791 85.9533 23.3753C85.7377 22.1123 85.6659 20.829 85.5529 19.5456C85.4913 18.8734 85.5221 18.8632 85.9944 18.1807C86.2305 18.252 86.4872 18.3335 86.7438 18.415C86.9902 20.3502 87.1956 22.204 87.4728 24.0577C87.7602 25.993 88.2838 27.8671 89.4029 29.5171C91.7436 32.9598 96.5278 33.2348 99.2176 30.0875C100.829 28.2032 100.758 25.7791 99.156 23.8744C97.3081 21.6743 95.5628 19.3928 93.7764 17.152C92.3904 15.4205 90.7272 14.0658 88.5302 13.4547C82.8734 11.8861 75.8203 14.9723 73.6951 20.4521C73.459 21.0632 73.1715 21.6642 72.8943 22.2651C71.7548 24.6689 69.8144 25.942 67.1964 26.2985C66.909 26.3393 66.6318 26.3902 66.293 26.4411C66.1287 28.0097 65.4101 29.1097 63.7366 29.4051C64.0138 31.7274 64.7735 33.6626 66.7858 34.946C68.3463 35.9441 70.0403 36.5043 71.878 36.6978C73.2023 36.8404 74.5267 36.9627 75.8511 37.1154C76.2515 37.1562 76.6519 37.258 77.0523 37.3395C79.1056 37.7673 80.4813 38.9692 81.2307 40.9044C82.1034 43.1452 82.6578 45.4573 82.781 47.8611C82.9555 51.3139 82.8734 54.7668 82.3395 58.1891C82.2471 58.8104 82.319 59.5336 81.5901 60.0225C81.3334 59.9206 81.0357 59.8086 80.6866 59.6762C80.779 59.1058 80.8611 58.6067 80.933 58.1076C81.5901 53.7279 81.8878 49.338 81.0357 44.9582C80.7687 43.6036 80.2246 42.2998 79.7524 40.9859C79.3725 39.9063 78.5512 39.2035 77.4732 38.8979C76.5903 38.6534 75.6663 38.5414 74.7628 38.409C73.0483 38.1645 71.2928 38.0932 69.6091 37.7062C66.5599 37.0034 64.3116 35.2413 63.0385 32.3079C62.3507 30.719 62.248 29.1097 62.4431 27.4495C62.6073 26.0846 63.3465 25.392 64.753 25.1679C65.6667 25.0253 66.5907 24.9948 67.5044 24.842C69.5167 24.5059 70.9642 23.4568 71.724 21.5216C72.0628 20.666 72.4632 19.841 72.8841 19.0261C75.1427 14.677 78.931 12.538 83.6434 11.7741C85.0807 11.5398 86.518 11.6315 87.945 11.8963C90.7786 12.426 92.9756 13.9436 94.7209 16.164C96.6305 18.5983 98.5606 21.0123 100.429 23.4772C102.708 26.4819 101.969 30.2607 98.7351 32.3079C98.2115 32.644 97.6468 32.9089 96.9487 33.2959Z" fill="#E49257"/>
<path d="M14.2114 57.6595C13.8213 57.5882 13.4825 57.5271 13 57.4354C13.154 56.865 13.2259 56.3965 13.4004 55.9789C14.7966 52.6381 16.5625 49.5111 18.8724 46.6999C19.8785 45.4777 20.8744 44.2453 21.7984 42.9619C22.5478 41.923 23.2357 40.823 23.8517 39.6924C24.7141 38.1136 24.9399 36.4127 24.3958 34.6811C23.595 32.1348 23.7593 29.6088 24.4882 27.093C24.6935 26.3902 24.9707 25.6976 25.3403 25.0763C25.7407 24.4041 25.8536 23.742 25.7715 22.9883C25.4225 20.0039 25.6997 17.0502 26.4491 14.1473C26.6339 13.4445 26.8598 12.7316 27.1678 12.0695C27.6195 11.0306 28.3792 10.7556 29.4264 11.2139C29.8986 11.4176 30.3606 11.6825 30.7508 12.0084C32.0751 13.1186 33.379 14.2594 34.6623 15.4205C35.0422 15.7668 35.3296 16.2048 35.5965 16.5307C36.5719 16.4187 37.3419 16.3066 38.1118 16.2557C38.8408 16.215 39.5799 16.2557 40.545 16.2557C40.6477 16.1335 40.8838 15.8076 41.1507 15.5224C42.1568 14.4529 43.163 13.3732 44.1896 12.3241C44.4463 12.0695 44.7645 11.8556 45.0931 11.7028C46.1608 11.1834 46.941 11.4787 47.1977 12.6297C47.5262 14.0964 47.711 15.5835 47.8855 17.0807C47.9677 17.8039 47.8958 18.5474 47.8958 19.3826C49.1483 20.4114 49.8567 21.8679 50.4932 23.355C51.0374 24.6281 52.0537 25.1476 53.3576 25.28C53.4705 25.2902 53.5834 25.28 53.6861 25.2902C55.2261 25.4124 56.0269 26.0337 56.2733 27.531C56.8379 30.9125 56.0063 33.8867 53.3268 36.1682C52.5773 36.8099 51.6944 37.3192 50.8115 37.7673C49.4255 38.4599 48.0087 39.1016 46.5714 39.672C42.8652 41.1387 40.8735 44.0212 39.9803 47.6981C39.0872 51.3343 38.9845 55.0316 39.6313 58.7391C39.7031 59.1669 39.7134 59.6151 39.7545 60.0123C38.9434 60.6744 38.4301 60.5419 38.2556 59.6354C38.1324 58.9836 38.1016 58.3215 38.0502 57.6697C37.732 53.952 37.8038 50.2547 38.8818 46.649C39.6621 44.0314 40.8838 41.648 43.204 40.0285C44.1075 39.397 45.1033 38.8979 46.0889 38.409C47.8445 37.5432 49.6411 36.7793 51.3761 35.883C52.5055 35.3025 53.4294 34.4469 54.0352 33.2959C54.1686 33.0413 54.2816 32.7765 54.4766 32.3487C53.1112 32.7968 51.8997 32.9802 50.8731 31.9616C50.4316 31.5135 50.37 31.3098 50.4624 30.4033C50.678 30.3625 50.9142 30.3218 51.1605 30.281C51.4275 30.5866 51.6636 30.8616 51.8895 31.1162C53.5834 31.707 54.5998 31.0042 54.9489 28.9671C53.8812 28.5495 52.9469 27.9282 52.7827 26.6143C52.6081 26.5328 52.4541 26.4208 52.2796 26.38C50.8218 26.0643 49.8875 25.1476 49.2715 23.8439C49.1586 23.6096 49.0251 23.3855 48.9327 23.1512C48.0498 20.9206 46.3661 19.515 44.1793 18.6595C41.6024 17.6511 38.964 17.3354 36.2331 17.9058C35.9148 17.9669 35.576 17.9872 35.1962 18.0382C33.2969 15.8789 31.3154 13.8112 28.5948 12.3852C28.3689 12.8538 28.1225 13.251 27.9685 13.6788C26.8906 16.8057 26.7982 20.0039 27.1678 23.2531C27.2088 23.579 27.2602 23.905 27.3012 24.2513C26.3054 25.6161 25.6586 27.1236 25.3917 28.7838C25.1247 30.4746 24.981 32.1755 25.5251 33.8052C26.562 36.8914 25.7407 39.6109 24.0467 42.1572C22.9688 43.7767 21.6855 45.2638 20.5459 46.8425C19.1907 48.7268 17.8253 50.5908 16.6035 52.5566C15.8541 53.7584 15.3716 55.1335 14.7658 56.427C14.581 56.8243 14.4065 57.2113 14.1909 57.7002L14.2114 57.6595ZM45.9349 12.976C44.59 13.4445 42.7318 15.3288 42.3108 16.5307C43.0398 16.7752 43.7892 16.9789 44.4873 17.2743C45.1752 17.5594 45.8322 17.9465 46.6433 18.3641C46.592 16.4594 46.438 14.7381 45.9349 12.9658V12.976Z" fill="#E49257"/>
<path d="M59.435 12.8844C60.2358 12.6094 60.8415 12.3038 61.4883 12.1918C63.1925 11.8862 64.712 13.0168 64.8454 14.728C64.8968 15.3595 64.7736 16.0521 64.5682 16.6632C64.2089 17.7225 63.5313 18.6086 62.6484 19.3114C61.6936 20.0549 60.708 20.7577 59.6814 21.5115C57.895 20.4114 56.2524 19.3114 55.0307 17.6919C54.2299 16.6326 54.158 15.4308 54.4866 14.2187C54.9691 12.4362 57.0018 11.5909 58.6753 12.4464C58.973 12.5992 59.2399 12.7724 59.4453 12.8946L59.435 12.8844ZM59.5479 19.7901C60.9955 19.067 62.094 18.191 62.8743 17.1827C63.4081 16.49 63.7264 15.716 63.6032 14.8298C63.48 13.852 62.6689 13.2511 61.7039 13.465C61.2522 13.5668 60.8312 13.8316 60.4309 14.0761C60.1229 14.2594 59.8765 14.5243 59.5582 14.7789C59.1681 14.4326 58.8601 14.1168 58.511 13.852C57.7616 13.2918 56.9813 13.2409 56.3448 13.6687C55.6569 14.127 55.3489 15.0743 55.6261 15.9197C55.9033 16.7854 56.4167 17.5086 57.125 18.0586C57.9053 18.6697 58.7369 19.2197 59.5479 19.8003V19.7901Z" fill="#E49257"/>
<path d="M76.7035 23.6503C77.5864 23.6809 78.2332 24.3837 78.223 25.3207C78.2127 26.2374 77.5146 26.8995 76.5906 26.8791C75.7385 26.8587 75.102 26.0948 75.1533 25.1374C75.2046 24.2105 75.8206 23.6197 76.7035 23.6503Z" fill="#E49257"/>
<path d="M45.8735 26.8994C45.853 27.755 45.1651 28.3865 44.2719 28.3763C43.389 28.3763 42.7936 27.7346 42.8038 26.7976C42.8141 25.8707 43.4301 25.229 44.3027 25.229C45.1754 25.229 45.8941 26.0031 45.8735 26.8892V26.8994Z" fill="#E49257"/>
</g>
<defs>
<clipPath id="clip0_446_164">
<rect width="94" height="78" fill="white" transform="translate(13 11)"/>
</clipPath>
</defs>
</svg>
